<?xml version="1.0" ?><!-- Uploaded to: SVG Repo, www.svgrepo.com, Generator: SVG Repo Mixer Tools -->
<svg fill="#803DB4" width="800px" height="800px" viewBox="0 0 64 64" data-name="Layer 1" id="Layer_1" xmlns="http://www.w3.org/2000/svg"><title/><path d="M12,54.92712a3.9147,3.9147,0,0,0-2.65649-3.6986,4,4,0,1,0-4.687,0A3.9147,3.9147,0,0,0,2,54.92712V62H12Z"/><path d="M18,54.92712V62H28V54.92712a3.9147,3.9147,0,0,0-2.65649-3.6986,4,4,0,1,0-4.687,0A3.9147,3.9147,0,0,0,18,54.92712Z"/><path d="M46,54.92712a3.9147,3.9147,0,0,0-2.65649-3.6986,4,4,0,1,0-4.687,0A3.9147,3.9147,0,0,0,36,54.92712V62H46Z"/><path d="M62,54.92712a3.9147,3.9147,0,0,0-2.65649-3.6986,4,4,0,1,0-4.687,0A3.9147,3.9147,0,0,0,52,54.92712V62H62Z"/><path d="M49,30.5A1.50164,1.50164,0,0,1,47.5,29h-1a2.5,2.5,0,0,0,5,0h-1A1.50164,1.50164,0,0,1,49,30.5Z"/><circle cx="46.5" cy="25" r="1"/><polygon points="34 16 31 12 28 16 31 20 34 16"/><path d="M61,27.40344V12.59656A10.59655,10.59655,0,0,0,50.40344,2H13.59656A10.59655,10.59655,0,0,0,3,12.59656V27.40344A10.59658,10.59658,0,0,0,13.59656,38H50.40344A10.59658,10.59658,0,0,0,61,27.40344ZM43.90454,6.87244a3.16925,3.16925,0,0,1,4.36755,0L49,7.57458l.72791-.70214a3.16925,3.16925,0,0,1,4.36755,0,2.90474,2.90474,0,0,1,0,4.2127L49,16l-5.09546-4.91486A2.90474,2.90474,0,0,1,43.90454,6.87244Zm-30.42773-.846c-.01435.42389-.02173.82849-.02173.98822A6.6142,6.6142,0,0,0,19.78,13.59058a5.99526,5.99526,0,0,1-5.33032,4.38671,6.76461,6.76461,0,0,0,.22119-1.615A6.85446,6.85446,0,0,0,8.52533,9.55286,5.99779,5.99779,0,0,1,13.47681,6.02643ZM8.1911,10.52173a5.85829,5.85829,0,0,1,5.4798,5.84057,5.7906,5.7906,0,0,1-.24927,1.60846,5.9755,5.9755,0,0,1-5.23053-7.449ZM20,29H17l1,5-6-5H8V22H20Zm-.038-16.34058.00091-.05786a5.6135,5.6135,0,0,1-5.50781-5.58691c0-.14258.0069-.56354.02093-.9906a5.97937,5.97937,0,0,1,5.486,6.63537ZM38,25H24V7H38Zm4,2a7,7,0,1,1,7,7A7,7,0,0,1,42,27Z"/><circle cx="51.5" cy="25" r="1"/></svg>