<!DOCTYPE svg PUBLIC "-//W3C//DTD SVG 1.1//EN" "http://www.w3.org/Graphics/SVG/1.1/DTD/svg11.dtd">
<!-- Uploaded to: SVG Repo, www.svgrepo.com, Transformed by: SVG Repo Mixer Tools -->
<svg version="1.1" id="Icons" xmlns="http://www.w3.org/2000/svg" xmlns:xlink="http://www.w3.org/1999/xlink" viewBox="0 0 32 32" xml:space="preserve" width="70px" height="70px" fill="#000000">
<g id="SVGRepo_bgCarrier" stroke-width="0"/>
<g id="SVGRepo_tracerCarrier" stroke-linecap="round" stroke-linejoin="round"/>
<g id="SVGRepo_iconCarrier"> <style type="text/css"> .st0{fill:none;stroke:#803DB4;stroke-width:2;stroke-linecap:round;stroke-linejoin:round;stroke-miterlimit:10;} .st1{fill:none;stroke:#803DB4;stroke-width:2;stroke-linejoin:round;stroke-miterlimit:10;} </style> <path class="st0" d="M20,4c-2.2,0-4,1.8-4,4v6v4l6-3h3c2.2,0,4-1.8,4-4V8c0-2.2-1.8-4-4-4H20z"/> <line class="st0" x1="20" y1="8" x2="23" y2="8"/> <line class="st0" x1="20" y1="11" x2="21" y2="11"/> <path class="st0" d="M15.7,16.9c0,1.8-1,3.3-2.4,4.2v0c0,1.4,0.9,2.6,2.1,3l0,0c1.6,0.6,2.9,2,3.2,3.7l0.1,0.7 c0.1,0.3-0.2,0.5-0.4,0.5H3.5c-0.3,0-0.5-0.3-0.4-0.5l0.1-0.7c0.3-1.7,1.6-3.1,3.2-3.7l0,0c1.3-0.4,2.1-1.6,2.1-3v0 c-1.4-0.9-2.4-2.5-2.4-4.4v-3.9"/> <path class="st0" d="M18.9,16.9c0,2.7-0.7,5.7-1.8,8.1"/> <path class="st0" d="M4.8,25C3.7,22.6,3,19.6,3,16.9C3,10.6,6.6,8,11,8c1.9,0,3.7,0.5,5,1.6"/> <path class="st0" d="M5.4,10c0.3,3.8,4.8,6.9,10.3,6.9"/> </g>
</svg>