<?xml version="1.0" encoding="UTF-8" standalone="no"?>
<svg
   height="730"
   viewBox="0 0 959.99998 730"
   width="960"
   version="1.1"
   id="svg12"
   sodipodi:docname="flutterista_logo_white_outline_fill.svg"
   inkscape:version="1.3 (0e150ed6c4, 2023-07-21)"
   inkscape:export-filename="flutterista_logo_white_outline_150.png"
   inkscape:export-xdpi="15"
   inkscape:export-ydpi="15"
   xmlns:inkscape="http://www.inkscape.org/namespaces/inkscape"
   xmlns:sodipodi="http://sodipodi.sourceforge.net/DTD/sodipodi-0.dtd"
   xmlns="http://www.w3.org/2000/svg"
   xmlns:svg="http://www.w3.org/2000/svg">
  <defs
     id="defs12" />
  <sodipodi:namedview
     id="namedview12"
     pagecolor="#949494"
     bordercolor="#666666"
     borderopacity="1.0"
     inkscape:showpageshadow="false"
     inkscape:pageopacity="0.0"
     inkscape:pagecheckerboard="true"
     inkscape:deskcolor="#d1d1d1"
     showborder="false"
     inkscape:zoom="1.3153872"
     inkscape:cx="443.59563"
     inkscape:cy="430.29157"
     inkscape:current-layer="layer2" />
  <g
     inkscape:groupmode="layer"
     id="layer2"
     inkscape:label="Layer 2">
    <path
       id="path17"
       style="fill:#ffffff;fill-opacity:1;fill-rule:evenodd;stroke:none;stroke-width:1px;stroke-linecap:butt;stroke-linejoin:miter;stroke-opacity:1"
       d="m 232.33594,0.05273437 c -1.80143,0.08848737 -3.31305,0.2632212 -4.28321,0.37109375 -0.028,0.003784 -0.056,0.00769 -0.084,0.0117188 -2.16898,0.26046291 -8.70761,1.00496192 -15.33203,5.03710932 -5.81429,3.4781602 -9.32117,8.0594608 -11.33594,10.8437498 -0.0183,0.0253 -0.0366,0.05069 -0.0547,0.07617 -8.41799,11.874801 -12.16118,24.406921 -13.51562,28.642578 -0.023,0.07084 -6.63321,20.359594 -9.125,29.470703 -1.51789,5.523345 -3.06778,11.195837 -4.63867,16.757813 -1.26689,-2.828992 -2.82247,-5.851388 -4.95508,-9.009766 -2.85047,-4.278779 -9.64292,-14.474354 -22.625,-20.595703 l -0.006,-0.002 c -18.5046,-8.763298 -35.58104,-3.175225 -38.71875,-2.089844 -12.971035,4.374847 -20.630403,12.958446 -23.490235,16.296875 -0.0018,0.002 -0.0041,0.0058 -0.0059,0.0078 -2.524412,2.933644 -7.974378,10.207195 -13.642578,26.666016 -0.0059,0.0169 -0.01177,0.0338 -0.01758,0.0508 -2.017766,5.96586 -5.613086,17.45428 -9.220703,39.92773 v 0.004 c -1.890026,11.79859 -2.261322,16.72988 -4.544922,34.30859 -1.4637,11.25182 -2.564212,18.83174 -3.603515,26.17383 -2.784344,0.0117 -6.180139,-0.0386 -8.3125,0 h -1.146485 c -0.132852,-1.2e-4 -0.265692,0.002 -0.398437,0.008 -6.538519,0.26889 -12.702477,0.63396 -19.123047,1.37695 -6.430152,0.68533 -10.170575,1.24624 -13.351562,2.17383 -1.5943173,0.4649 -3.1597303,1.05125 -4.7753911,2.13476 -1.615661,1.08352 -3.0739573,2.83968 -3.6386719,3.71875 -0.037747,0.0588 -0.074859,0.11809 -0.1113281,0.17774 -2.35770421,3.84951 -2.44750815,7.69287 -2.1699219,10.24218 0.13879269,1.27467 0.38144388,2.30984 0.6015625,3.09766 0.22011906,0.78782 0.7064876,2.18457 0.3710937,1.17774 0.059866,0.18025 0.1249981,0.35871 0.1953126,0.53515 1.2071512,3.02005 3.6591542,5.87247 6.0957031,7.60547 2.4160108,1.71839 4.7644461,2.75684 7.4765621,3.90039 7.334427,3.18323 13.041577,5.57397 21.101563,7.07227 0.0019,3.4e-4 0.004,-3.6e-4 0.0059,0 4.15881,0.78899 7.647071,1.10388 10.580078,1.31445 -2.037178,16.57852 -4.06805,32.55954 -5.84375,44.42969 -0.0013,0.0117 -0.0026,0.0234 -0.0039,0.0352 -3.425203,23.46624 -6.58592,41.81833 -8.970703,55.69532 -3.082987,17.71761 -3.709779,21.1982 -4.013672,22.71875 -0.372931,1.86597 -1.688865,7.81907 -3.052734,15.82617 -0.0047,0.0286 -0.0092,0.0573 -0.01367,0.0859 -0.401964,2.49396 -0.863942,4.1928 -1.0625,6.9004 -0.626695,4.18996 -3.332166,23.45636 11.964844,36.4375 l 0.0039,0.006 c 7.94052,6.72863 17.359142,7.98557 24.302734,7.71874 6.943593,-0.26682 11.295722,-1.7175 13.113282,-2.3789 1.942807,-0.70698 10.145421,-3.59682 16.535156,-11.34375 0.02624,-0.0311 0.05228,-0.0623 0.07813,-0.0937 4.436443,-5.51953 6.333611,-11.41499 7.429687,-15.99219 3.430404,-13.67489 3.812924,-25.24262 4.058594,-29.58594 0.002,-0.0299 0.004,-0.0599 0.006,-0.0898 0.69258,-14.64104 1.0364,-7.69171 2.81445,-35.44922 l 0.002,-0.0176 c 1.06646,-17.16462 0.79746,-17.94271 1.75195,-29.75781 0.32034,-3.76209 1.21327,-11.32746 2.80273,-26.25976 1.84103,-16.84432 2.5041,-21.21652 3.21289,-26.0918 8.9e-4,-0.007 0.001,-0.009 0.002,-0.0156 0.70525,-4.58645 1.23602,-7.25048 1.84179,-10.66992 6.61693,-0.002 13.23925,-0.0221 19.8711,-0.043 -1.17499,5.39534 -2.14845,10.37412 -2.83399,14.4375 -0.0276,0.16279 -0.051,0.32626 -0.0703,0.49024 -2.47137,21.19825 -4.01796,32.95202 -1.04297,45.51172 1.34524,5.74307 3.30255,13.56273 9.73047,20.35937 0.0265,0.0288 0.0532,0.0575 0.0801,0.0859 7.90076,8.15348 18.62745,11.53166 28.61914,10.79101 0.0456,-0.004 0.0912,-0.007 0.13672,-0.0117 4.09782,-0.36182 7.57107,-1.51156 11.17187,-2.89648 l 0.004,-0.002 c 1.87052,-0.71312 10.09872,-3.93243 19.95898,-11.55274 7.59183,-5.84641 12.6205,-11.47836 16.82032,-16.30664 0.58795,-0.66641 0.99836,-1.23293 1.55273,-1.88281 0.95209,1.24205 1.83324,2.48914 3.03125,3.70703 0.0182,0.0177 0.0364,0.0352 0.0547,0.0527 1.39992,1.40092 12.25254,12.39506 29.06445,12.03711 0.0247,9e-5 0.0495,9e-5 0.0742,0 8.07911,-0.23435 14.25971,-3.08473 17.86523,-4.88672 10.24086,-4.97728 16.5497,-12.22735 20.76368,-17.16211 0.0203,-0.024 0.0405,-0.0481 0.0605,-0.0723 11.85213,-14.1562 20.06105,-26.97527 26.34571,-37.31055 0.40946,1.96158 0.78895,3.92535 1.40625,5.83985 1.72475,5.34915 5.01845,10.99414 10.52929,14.50586 7.27511,4.66807 15.1114,4.48994 20.9375,3.53515 1.879,-0.30793 3.29952,-0.7737 4.83594,-1.20507 -0.97639,8.17268 -1.77924,15.56485 -2.30859,21.33593 -8.9e-4,0.01 -9.9e-4,0.0177 -0.002,0.0273 -3.6e-4,0.004 -0.002,0.01 -0.002,0.0137 -0.62951,6.57714 -0.92383,11.36877 -0.92383,17.14844 0,8.11275 0.0899,18.54886 3.52149,31.10742 3.74293,13.70098 9.59764,21.693 11.2207,23.79492 0.013,0.0157 0.026,0.0313 0.0391,0.0469 3.83633,4.90547 7.18605,7.49211 8.82617,8.5918 2.77452,1.95547 10.33249,6.8847 21.10938,7.24024 0.0397,8.9e-4 0.0794,0.002 0.11914,0.002 6.07969,0.12675 11.05991,-1.56347 18.22266,-4.04102 1.34236,-0.44819 2.49701,-0.87615 5.49218,-2.23828 3.00926,-1.36853 6.99188,-3.38293 11.25977,-6.14648 0.0366,-0.0238 0.0731,-0.0479 0.10937,-0.0723 0.28684,-0.19136 0.76478,-0.51696 1.15625,-0.77344 1.2246,1.56911 2.40976,2.90022 3.48829,3.91602 l 0.0137,0.0137 c 1.03727,0.97314 7.67564,7.69783 17.77734,10.42383 -1.7693,3.6601 -3.67372,9.72846 -0.98828,16.97266 0.004,0.0111 0.008,0.0221 0.0117,0.0332 2.9241,7.80315 9.03057,10.94479 11.13281,11.91016 1.54403,0.73744 3.04493,1.02984 4.54297,1.36718 -0.11681,0.26945 -0.24488,0.53453 -0.36523,0.80274 -3.75162,-0.1298 -8.88439,0.37981 -14.35157,3.71289 -8.8e-4,6.8e-4 -0.003,0.001 -0.004,0.002 -7.57877,4.6118 -10.41671,12.40105 -12.88477,20.35938 -0.005,0.0156 -0.009,0.0312 -0.0137,0.0469 -2.30178,7.55524 -5.06306,17.97657 -7.17773,30.76563 l 0.10937,-0.5625 -2.12109,9.36718 c -0.0463,0.20375 -0.086,0.40893 -0.11914,0.61524 -2.0748,12.99933 -3.24617,24.09673 -3.9668,32.38476 -1.17085,12.97864 -1.10474,19.2745 0.14258,25.62696 7.7e-4,0.004 0.001,0.008 0.002,0.0117 1.4188,7.36661 3.46171,18.41165 12.8418,26.82812 12.2083,10.98876 28.61622,11.51668 40.89648,7.03125 l 0.006,-0.004 c 5.90493,-2.15035 9.9628,-5.55268 14.17969,-9.27734 -1.93477,2.62778 -4.45697,5.82519 -6.0918,8.13281 l -0.002,0.004 c -7.49659,10.59098 -11.75228,16.63489 -15.9668,25.25195 -0.003,0.004 -0.007,0.0128 -0.01,0.0176 -4.7793,9.65632 -15.62341,32.22415 -12.87696,60.98438 6.4e-4,0.01 0.001,0.0195 0.002,0.0293 0.61568,6.24926 1.40228,14.32163 5.58203,23.53907 2.53773,5.70953 12.90624,27.62987 37.50586,34.20507 11.59518,3.13967 21.60318,1.32666 25.17382,0.63477 3.07858,-0.51549 10.49245,-2.16113 19.25,-7.09961 2.25652,-1.2437 9.14333,-5.29174 16.41211,-13.07031 11.71713,-12.53414 16.46484,-26.13821 20.02149,-36.54883 0.005,-0.0163 0.0105,-0.0325 0.0156,-0.0488 3.77521,-11.23923 5.23404,-20.06282 6.55469,-27.9043 0.003,-0.0215 0.007,-0.043 0.01,-0.0644 0.35409,-2.19047 0.93603,-7.19454 1.46875,-11.85156 0.73282,2.4132 1.71634,5.33145 3.10156,8.49805 2.89434,6.61649 7.08157,14.58968 15.81055,19.2207 7.27457,3.87908 14.43383,4.64526 14.59375,4.66211 2.26223,0.33011 4.02449,0.3502 4.42578,0.35156 9.79234,0.31332 17.45211,-3.44313 19.91601,-4.55664 0.0753,-0.0342 0.15019,-0.0694 0.22461,-0.10547 4.03975,-1.95161 7.15666,-4.48258 12.91602,-8.91601 l -0.27539,0.20703 c 1.62933,-1.16464 2.94721,-2.24377 5.38476,-4.74024 2.43119,-2.48996 5.63048,-5.20398 6.80664,-11.53515 0.0547,-0.1129 2.18371,-5.75788 -3.02343,-10.96875 -2.43514,-2.43687 -5.44087,-3.15763 -7.33789,-3.29688 -1.8471,-0.13557 -3.02655,0.10421 -3.89258,0.27735 -4.4979,0.81688 -7.86835,2.57916 -9.16407,3.27734 l 0.26172,-0.13477 c -0.65036,0.32542 -2.82634,0.94679 -3.80468,0.83008 -0.74774,-0.21338 -0.94175,-0.3047 -1.10547,-0.47461 -0.0413,-0.0427 -0.0829,-0.085 -0.125,-0.12695 -0.26636,-0.26655 -0.4566,-0.64077 -0.67578,-1.81055 -0.0112,-0.0561 -0.023,-0.11208 -0.0352,-0.16797 -2.96682,-14.42055 -3.3418,-22.88672 -3.3418,-22.88672 -6.3e-4,-0.0124 -0.001,-0.0247 -0.002,-0.0371 -0.26629,-5.24078 -0.52259,-9.86695 -0.60742,-15.21484 -7.4e-4,-0.0606 -0.002,-0.12111 -0.004,-0.18164 -0.0812,-2.35858 -0.084,-4.61691 -0.084,-7.70703 0,-2.14505 0.0816,-7.60166 0.75195,-14.72852 0.002,-0.0208 0.004,-0.0417 0.006,-0.0625 0.84714,-9.66435 2.10846,-17.15884 3.07031,-22.67187 5.9e-4,-0.004 -8.8e-4,-0.008 0,-0.0117 0.19816,-1.04975 0.54508,-3.0206 0.8418,-4.63867 -0.0303,0.5329 -0.10509,1.04099 -0.125,1.57812 -0.3661,9.87736 1.05298,20.98443 8.1914,30.16016 0.0136,0.017 0.0273,0.0339 0.041,0.0508 1.18441,1.50133 6.38472,8.49406 15.69727,11.44531 7.55314,2.45687 14.31592,1.07751 18.00586,0.24805 12.98241,-2.78572 21.5105,-10.43916 27.08789,-15.40039 0.0268,-0.0239 0.0535,-0.048 0.0801,-0.0723 0.8598,-0.78219 2.05029,-2.03395 3.10938,-3.08007 3.71382,4.85646 8.90004,10.06722 16.17383,14.21679 3.85932,2.22046 17.02706,9.63727 33.78515,6.71094 0.007,-0.001 0.0143,-0.003 0.0215,-0.004 14.64238,-2.59241 23.69879,-11.95327 30.26562,-18.79101 10.21383,-10.51883 15.32122,-21.16994 23.81055,-39.22266 l 0.008,-0.0156 c 0.10363,-0.22138 0.16712,-0.38374 0.26953,-0.60352 1.13198,2.97989 2.15331,5.89274 3.41797,8.94922 l 0.002,0.002 c 1.63701,3.95423 3.31388,7.52682 4.97656,11.20313 -16.0858,14.04422 -27.78872,27.79569 -35.53516,38.35156 -0.005,0.006 -0.009,0.0117 -0.0137,0.0176 -11.52485,15.77726 -18.40554,29.46531 -24.23242,41.03906 l -0.002,0.002 v 0.002 c -5.14615,10.21092 -8.09411,16.23579 -10.0586,23.47851 -0.0106,0.0377 -0.0211,0.0755 -0.0312,0.11328 -2.03354,7.87456 -8.38539,31.30356 4.67774,53.26954 0.006,0.0104 0.013,0.0208 0.0195,0.0312 9.31832,15.54164 23.70599,22.0876 28.99218,24.45898 0.007,0.003 0.013,0.005 0.0195,0.008 26.57649,11.85456 51.67813,2.40838 56.375,0.69922 5.10703,-1.85844 17.09023,-6.44794 27.67382,-17.66211 0.008,-0.008 0.0156,-0.0169 0.0234,-0.0254 10.89025,-11.62454 14.66272,-24.42005 17.91797,-35.16211 1.22608,-3.98761 4.14587,-14.67938 4.91406,-29.06054 0.20974,-3.37712 0.33963,-10.87917 -1.90234,-29.9043 v -0.002 -0.002 -0.002 c -2.12417,-17.89122 -4.0727,-33.28374 -9.46485,-52.94727 -0.006,-0.0222 -0.0116,-0.0443 -0.0176,-0.0664 -1.85586,-6.58998 -3.63222,-12.00084 -5.30078,-16.78516 5.13086,-3.88842 9.71471,-7.55739 13.09375,-10.53125 l 0.0234,-0.0195 c 8.7391,-7.59706 18.43093,-16.02697 27.68946,-29.20703 v -0.004 c 1.889,-2.68663 3.38315,-5.1241 6.36718,-9.86719 0.009,-0.0143 0.017,-0.0286 0.0254,-0.043 5.98131,-9.61312 12.16885,-20.48997 15.03711,-25.76758 0.006,-0.0117 0.0117,-0.0234 0.0176,-0.0352 0.46592,-0.86585 1.95653,-3.51202 4.01367,-6.94336 0.0211,-0.0344 0.0419,-0.0689 0.0625,-0.10351 0.44561,-0.76449 1.1479,-1.86726 2.16407,-3.39258 2.05105,-3.07883 3.53573,-5.16328 5.22851,-8.44531 0.0191,-0.037 0.038,-0.0741 0.0566,-0.11133 0.95471,-1.91093 1.66091,-3.4101 2.08594,-5.6875 0.42512,-2.27741 -0.22277,-6.67755 -2.12891,-9.0625 -2.19941,-2.75117 -4.69188,-3.5115 -6.40039,-3.86524 -1.70841,-0.35373 -2.99139,-0.31777 -4.32617,-0.12695 -0.17788,0.025 -0.35503,0.055 -0.53125,0.0898 -1.91267,0.38281 -4.63446,1.92537 -5.82812,2.94922 -2.62144,2.24856 -4.13086,5.14844 -4.13086,5.14844 l 0.25195,-0.47266 c -0.52305,0.91599 -2.38627,2.89124 -4.7207,6.21094 -0.0377,0.0543 -0.0748,0.109 -0.11133,0.16406 -2.18149,3.24141 -8.58238,10.95207 -17.00586,21.15625 -0.97178,1.167 -0.87206,1.00386 -1.74219,2.04883 3.81819,-14.18706 6.60067,-28.4876 7.22461,-41.23633 0.45098,-3.72562 0.58028,-7.72228 -0.0293,-12.08398 -0.007,-0.0437 -0.014,-0.0873 -0.0215,-0.13086 -0.20532,-1.33536 -3.13832,-21.61621 -21.29102,-33.88086 0,-0.002 -0.01,-0.004 -0.01,-0.006 -2.63265,-1.81929 -9.09342,-6.0233 -18.31641,-7.39062 -0.0208,-0.003 -0.0417,-0.007 -0.0625,-0.01 -1.54425,-0.21868 -3.05167,-0.34002 -4.51367,-0.37891 -10.21885,-0.27175 -18.12839,3.53844 -21.24219,4.98243 -0.034,0.0161 -0.0678,0.0324 -0.10156,0.0488 -1.76025,0.84118 -3.3351,1.82695 -4.91992,2.80274 0.085,-0.51488 0.25435,-1.10369 0.28515,-1.53906 0.072,-0.0436 0.1382,-0.0588 0.20899,-0.10352 2.10232,-1.32838 5.10816,-3.81443 6.43555,-8.24219 0.012,-0.0409 0.0237,-0.082 0.0351,-0.12304 1.15996,-4.06271 0.12238,-7.67581 -0.98828,-10.0625 2.83968,-1.92868 6.00967,-4.31329 9.41406,-7.60157 6.44574,-6.14991 11.44465,-13.16125 13.2793,-15.76953 0.72332,-0.97425 1.40449,-1.96634 2.43945,-3.40039 l 0.006,-0.008 c 4.32075,-6.00044 5.47322,-7.75422 6.20508,-8.9707 2.92002,-4.55666 4.22646,-7.70076 4.68945,-8.99805 0.0783,-0.22005 0.14867,-0.44285 0.21094,-0.66797 0.14819,-0.53385 0.73438,-2.26965 1.05274,-4.64453 0.15913,-1.18745 0.3103,-2.58538 -0.0195,-4.59766 -0.3294,-2.01227 -1.404,-5.17151 -4.38672,-7.41015 -3.08807,-2.31771 -5.75463,-2.34305 -7.44727,-2.31836 -0.15481,0.003 -0.19701,0.033 -0.3418,0.0391 3.07161,-1.90715 9.14363,-7.73774 12.42969,-19.40625 3.74578,-12.56904 2.46355,-23.56238 1.73633,-29.21094 v -0.0117 c -0.89589,-7.55971 -2.67357,-12.90023 -4.5625,-18.9082 -0.70363,-2.394 -2.27057,-6.69759 -5.49805,-11.86523 -0.0283,-0.0452 -0.0569,-0.0901 -0.0859,-0.13477 -3.89526,-6.01413 -8.97255,-9.20002 -11.45507,-9.94531 -0.1436,-0.0431 -0.28817,-0.0828 -0.4336,-0.11914 0.74314,0.18591 -0.47097,-0.13943 -1.31054,-0.30078 -0.83957,-0.16135 -1.93527,-0.31855 -3.25977,-0.3418 -2.63138,-0.0462 -6.44453,0.48938 -10.00586,3.02148 -2.7994,1.97175 -5.22397,5.60163 -6.4668,9.08399 -0.16892,0.47334 -0.22998,0.89712 -0.37304,1.36133 -1.78401,-3.63999 -3.77083,-7.20629 -6.30078,-10.91016 -0.0175,-0.0242 -0.0351,-0.0483 -0.0527,-0.0723 -2.10601,-3.02382 -7.00211,-9.93397 -15.20508,-16.39843 -6.17178,-4.8715 -12.57212,-8.23437 -18.3457,-10.71875 1.67817,-3.19298 3.6966,-7.46732 3.9375,-13.13282 0.002,-0.0417 0.004,-0.0833 0.006,-0.125 0.0703,-2.39138 -0.19657,-4.62501 -0.89844,-6.66992 -0.70186,-2.04492 -2.07035,-3.9243 -2.49609,-4.43554 -0.0399,-0.0486 -0.0803,-0.0968 -0.12109,-0.14454 -3.33343,-3.849 -7.29222,-5.03783 -11.14844,-5.0664 -0.33906,-1.20733 -0.78437,-2.4538 -1.48438,-3.57813 -0.87287,-1.55668 -1.44259,-2.11188 -2.57031,-3.14062 -1.33897,-1.22146 -3.27298,-2.61315 -6.0918,-3.35547 -0.16237,-0.0433 -0.32583,-0.0824 -0.49023,-0.11719 -3.76639,-0.78522 -7.3618,0.32683 -9.53516,1.47656 -1.32951,0.70335 -2.26022,1.36888 -3.04687,1.98047 -2.03056,-1.85258 -5.13885,-3.83592 -9.88867,-3.83593 -7.33553,0 -10.64863,4.26925 -11.93946,5.99023 -2.92362,3.6866 -3.28506,7.87922 -3.55664,10.96094 -0.17626,1.68443 -0.41402,4.37882 -0.082,7.59765 0.12758,2.09829 0.51371,6.87629 3.08789,12.45899 -0.1497,0.0645 -0.48072,0.14105 -0.61133,0.19922 -2.63137,1.08312 -4.71757,2.1915 -6.42187,3.14843 0.0417,-1.6226 -0.0177,-3.29312 -0.2207,-5.05078 -0.75064,-6.49854 -3.22566,-14.08842 -8.84376,-20.78711 -0.0149,-0.0176 -0.0299,-0.0352 -0.0449,-0.0527 -7.53534,-8.85738 -17.0315,-11.59192 -19.84765,-12.35156 -12.94628,-3.57444 -24.03006,0.36945 -29.5625,2.33398 -9.90911,3.51601 -17.73334,8.94001 -23.92188,14.57227 -0.18382,-0.79302 -0.26868,-1.57222 -0.50976,-2.39649 -0.003,-0.008 -0.005,-0.0169 -0.008,-0.0254 -2.33512,-7.90057 -6.41649,-13.43911 -7.01171,-14.25781 -8.9e-4,-0.002 -0.003,-0.002 -0.004,-0.004 -1.3886,-1.91876 -3.8868,-5.1295 -7.63086,-8.14843 4.31277,-1.31351 7.908,-2.66464 10.54492,-4.04688 0.013,-0.006 0.026,-0.013 0.0391,-0.0195 5.41594,-2.86929 9.35385,-6.08641 11.0586,-7.45117 0.0512,-0.0399 0.10197,-0.0802 0.15234,-0.1211 1.69724,-1.41537 4.20377,-3.62062 10.76563,-10.45703 0.0111,-0.011 0.0222,-0.0221 0.0332,-0.0332 3.53526,-3.71922 5.8242,-6.27843 9.26562,-9.89453 0.0348,-0.0368 0.0693,-0.0739 0.10352,-0.11133 0,0 7.81805,-8.484375 18.23828,-22.539062 0.65903,-0.886151 1.16233,-1.878218 1.48828,-2.933594 -0.58863,1.914433 -0.39755,1.006039 -0.0859,0.433594 0.31157,-0.572445 0.80442,-1.453498 1.32227,-2.576172 0.51785,-1.122676 1.10931,-2.452951 1.47461,-4.488282 0.36531,-2.035331 0.58746,-5.423969 -1.70508,-8.865234 -0.0994,-0.149983 -0.20296,-0.297176 -0.31054,-0.441406 -1.34923,-1.80024 -3.32366,-3.987554 -7.63086,-4.84961 -0.0566,-0.01092 -0.1132,-0.02134 -0.16993,-0.03125 -4.79587,-0.8726 -8.23125,1.216107 -7.64257,0.980469 -0.30904,0.123695 -0.61152,0.263202 -0.90625,0.417969 -3.64864,1.916897 -4.88087,2.223767 -7.63477,4.585937 l 0.41406,-0.335937 c -1.85835,1.424436 -15.14786,8.842353 -21.5,12.197266 -3.77939,1.981347 -8.14415,4.326325 -14.22265,6.875 -0.003,0.0011 -0.005,0.0028 -0.008,0.0039 -0.94599,0.389875 -1.85256,0.728837 -2.76562,1.099609 1.0963,-1.750716 2.67053,-4.199258 4.03906,-7.068359 0.71253,-1.493803 1.40741,-3.033567 1.85938,-5.28125 0.45196,-2.247683 1.05829,-6.577099 -2.7461,-10.595703 -0.061,-0.06334 -0.12285,-0.125843 -0.18554,-0.1875 -4.59333,-4.596596 -7.48392,-3.960531 -11.02539,-3.244141 -6.48206,1.081108 -9.43685,6.302863 -8.9043,5.636719 -0.0631,0.07911 -0.12495,0.159194 -0.18555,0.240234 -0.13756,0.183536 -2.80012,1.641385 -6.94531,5.498047 -1.95993,1.813308 -16.58485,10.943698 -32.6211,12.863281 -0.008,6.42e-4 -0.0156,0.0013 -0.0234,0.002 -6.26998,0.765178 -10.70839,0.400564 -13.86719,0.208985 l 0.10352,0.0078 c -12.06697,-0.862541 -30.22496,-1.337382 -55.86133,-0.285156 0.23514,-3.245088 0.32124,-7.559133 -0.75586,-12.755859 -2.4e-4,-0.0011 2.5e-4,-0.0046 0,-0.0059 -0.96088,-4.678914 -4.27689,-17.096727 -16.3086,-26.126953 -0.88373,-0.663277 -4.33167,-3.32432 -8.96679,-5.402344 -4.60012,-2.06233 -11.6005,-4.387499 -18.98242,-0.478515 -4.19548,2.145876 -5.99904,5.32674 -7.59766,7.566406 -0.0377,0.05366 -0.0748,0.107698 -0.11133,0.162109 -2.86357,4.188203 -4.44589,8.468293 -6.61719,15.185547 -3.03066,-4.129605 -6.79843,-7.434189 -10.47656,-10.519531 -0.0143,-0.01176 -0.0286,-0.02348 -0.043,-0.03516 -3.9563,-3.280409 -7.89711,-5.453812 -14.74023,-9.404297 l -0.0117,-0.0059 c -2.9159,-1.694177 -5.32653,-3.036651 -8.20508,-4.021484 -2.88207,-0.986042 -6.57332,-1.364536 -9.7168,-0.697266 -0.11373,0.02336 -0.22702,0.04875 -0.33984,0.07617 -0.6993,0.17495 -5.76651,1.784655 -9.84375,5.601563 -0.0124,0.01169 -0.0248,0.0234 -0.0371,0.03516 -7.29175,6.898952 -9.05355,15.537351 -9.68945,18.355469 -1.43623,6.140059 -3.22805,13.505608 -5.03125,20.919922 -1.73713,0.04795 -2.71231,0.06852 -4.7832,0.138672 -0.0112,3.79e-4 -0.0142,-3.8e-4 -0.0254,0 -43.33218,1.047855 -51.95306,-0.646975 -74.16601,1.914062 -20.29621,2.289192 -31.844,5.956004 -36.49024,7.50586 -0.0261,0.0084 -0.0521,0.01682 -0.0781,0.02539 0,0 -16.8437,5.660124 -32.30664,17.296872 -2.45364,1.81468 -4.26172,3.67188 -4.26172,3.67188 -0.35106,0.35131 -1.09679,1.0967 -1.98242,2.09375 -0.017,0.0188 -0.0339,0.0377 -0.0508,0.0566 -0.91063,1.04145 -2.15843,2.73431 -3.28907,4.79101 -0.34056,-0.26799 -0.75801,-0.4528 -1.07031,-0.74804 1.52175,-2.83257 3.1268,-5.78731 4.42383,-8.32422 0.0131,-0.0266 0.0262,-0.0533 0.0391,-0.0801 3.35316,-6.711089 3.46969,-8.371497 10.59961,-23.513671 l 0.01,-0.01953 c 4.02026,-8.483059 6.08524,-12.599719 8.04883,-19.378907 0.002,-0.0072 0.004,-0.01432 0.006,-0.02148 2.43906,-8.493963 3.15062,-15.34665 3.51954,-19.767578 0.71205,-7.841544 1.12004,-13.747997 -0.94141,-20.300781 -0.0159,-0.05157 -0.0321,-0.103001 -0.0488,-0.154297 -0.77309,-2.316973 -3.17861,-10.080797 -10.4082,-15.8417972 -0.01,-0.00848 -0.0195,-0.016947 -0.0293,-0.025391 -7.64206,-6.03749148 -16.30396,-6.55846705 -21.70898,-6.29296873 z M 673.4082,635.34766 c -8.6e-4,0.002 -0.0139,0.11041 -0.0137,0.10937 l 0.0273,-0.15234 c -0.003,0.0166 -0.0106,0.0264 -0.0137,0.043 z m -313.96875,-350.02539 -0.23633,0.10156 c 0.0227,-0.009 0.036,-0.0219 0.0586,-0.0312 0.0348,-0.0154 0.14538,-0.0559 0.17773,-0.0703 z"
       sodipodi:nodetypes="scccsccccccccscccccccccccssccssccscscccccscccccsscccccccccccccccccccccccccccccccccscscsscscccccccssccccccccccsccccccccscccccccccccccccccccccscccscccscssccccscccccccsscsccsccccscccscccccccccccccccccccssccccccccccccccccccccsscscsccscccccccccccccsccccccccccsccccscsccccccscscsscscccccccsccccsccscsccccccssccccsccccccccccccccssscccccccccsccsscccccccccccscssccccccccsccscccscccccccccccccccccccccscccccccc"
       inkscape:label="outline" />
  </g>
  <g
     inkscape:groupmode="layer"
     id="layer1"
     inkscape:label="Layer 1"
     sodipodi:insensitive="true">
    <g
       id="g15"
       transform="matrix(0.88308577,0,0,0.88371687,9.7139434,9.7208855)"
       style="stroke-width:1.132">
      <g
         fill="#390099"
         id="g6"
         transform="translate(-483.94345,-610.68444)"
         style="stroke-width:1.132">
        <path
           d="m 993.5,1065.5 c -2.3,-6.2 1.2,-11.8 2,-13 4,-6.3 10.7,-7.6 12.1,-7.8 2,-0.3 8,-1.3 12.6,2.7 4.6,3.9 5.4,10.4 4,15.3 -2.3,7.6 -9.7,10.1 -11.2,10.6 -1.6,0.5 -6.9,2.3 -12.5,-0.4 -1.1,-0.5 -5.2,-2.6 -7,-7.4 z"
           id="path2"
           style="stroke-width:1.132" />
        <path
           d="m 1548.9,1096.1 c -0.4,-0.5 -1.3,-0.6 -2,-0.5 -0.5,0.1 -0.9,0.3 -1.6,0.9 -1.4,1.2 -2,2.4 -2,2.4 -1.6,2.8 -4,5.2 -5.9,7.9 -3.3,4.9 -10.4,13.3 -19.9,24.8 -10,12 -15,18.1 -18.5,21.7 -8.9,9.3 -16.6,15.8 -26,23.7 -7,5.9 -12.9,10.6 -17.2,13.9 -0.9,-4.6 -2.4,-11.7 -5.1,-20 -2.1,-6.6 -3.4,-9.2 -5.2,-14.6 -1.4,-4.2 -4.4,-13.8 -5.6,-25.8 -0.8,-7.4 -2.1,-20.7 2,-35.6 1.7,-6 4,-11.8 5,-14 1.5,-3.6 3.2,-6.8 6.6,-13.4 0,0 4.9,-9.3 9.4,-11.1 0.4,-0.1 1.4,-0.5 2.1,-0.1 0.9,0.6 0.8,2.1 0.7,2.9 -0.6,8.5 -3,15.7 -3,15.7 -1.7,5.3 -2.6,7.9 -2.9,9.1 -0.9,4 -1.7,8.4 -0.8,13.5 0.3,1.4 2.3,11 10.7,14.9 6.4,2.9 12.7,0.9 14.7,0.1 7,-2.7 10.3,-8.6 13.4,-14.3 2.8,-5.1 8.5,-15.8 6.5,-30.1 -0.2,-1.3 -3.1,-19.9 -19.4,-30.9 -2.6,-1.8 -8.1,-5.4 -16.2,-6.6 -10.6,-1.5 -18.9,2.4 -23,4.3 -17.8,8.5 -26.3,25.9 -30.7,35.2 -2.7,5.7 -6.7,22 -14.7,54.6 -2.4,9.8 -4.6,18.9 -10.4,30.1 -1.6,3.1 -4.9,8.3 -11.3,18.5 -8.8,13.9 -13.2,20.8 -15.9,24.4 -3.6,4.8 -20,26.3 -26.2,23.3 -1.7,-0.8 -2.6,-3.3 -2,-15.3 0.9,-16.8 3.7,-28.2 7.9,-48.8 2.8,-13.6 4.5,-22.4 5.6,-28.3 1.3,-6.9 2.3,-12.6 2.9,-16.4 0.2,-1.4 1.7,-15 2.5,-24.3 0.1,-0.7 0.2,-2.2 -0.1,-4 -0.8,-5 -4.1,-8.2 -5.4,-9.6 -2.4,-2.4 -4.1,-2.5 -11.5,-6.5 -2.5,-1.3 -1.1,-0.6 -18.4,-8.4 -3.3,-1.5 -5.8,-2.6 -8.2,-1.5 -2.3,1.1 -3.4,3.8 -3.7,5.9 -0.3,2.9 1,4.8 1.9,7 0.7,1.7 1.3,4.1 -0.2,14.8 -1.7,11.5 -4.1,20.3 -4.3,21.3 -2.6,9.4 -3.4,9.6 -6.1,19.4 -2.3,8.4 -2.2,9.9 -4.1,17.1 -2.6,9.7 -5.5,16.7 -7.7,22.1 -3.9,9.4 -8.3,17.2 -17.1,32.7 -4.8,8.4 -8,13.7 -14.6,17.6 -2.1,1.3 -8.7,5.2 -12.3,2.8 -0.9,-0.6 -3.7,-3.1 0.1,-21.1 2.5,-11.5 5.7,-20.1 7.7,-25 4.5,-11.5 9,-22.8 17.6,-36.6 5.9,-9.5 9,-14.5 14.8,-20.7 0.9,-1 8.2,-8.6 16.6,-17.9 1.6,-1.8 5.6,-6.2 7,-12.8 0.9,-4.2 0.2,-6.3 -0.3,-7.3 -1.9,-4.1 -6.4,-5.4 -6.9,-5.5 -5.1,-1.3 -10.1,1.9 -14,4.7 -15.7,11.3 -22.7,21 -22.7,21.1 -4.7,5.5 -9.6,11.9 -14.4,19.2 -7.1,10.7 -12.5,21 -16.5,30 -6.6,13.4 -10,25 -11.9,33.1 -3.5,15 -9,39.1 2.6,54 1.5,1.9 5.5,7.1 12.5,9.3 5.8,1.9 10.7,0.9 14.7,0 11.7,-2.5 19.4,-9.3 25.7,-14.9 3.3,-3 8,-7.6 12.6,-14.2 1.8,4.4 7.7,17.2 22.1,25.4 4,2.3 16,8.9 30.9,6.3 13,-2.3 20.9,-10.4 28.3,-18.1 10.3,-10.6 15.3,-21 24.9,-41.4 5.2,-11.1 9,-20.4 11.4,-26.6 3.4,11.5 7.6,23.7 12.9,36.5 2.9,7 5.8,13.5 8.8,19.8 -20.9,17.1 -35.3,34.2 -44.7,47 -12.5,17.1 -19.9,31.8 -26.5,44.9 -5.8,11.5 -8.7,17.5 -10.6,24.5 -2.3,8.9 -8.1,31.4 4.1,51.9 8.7,14.5 22.1,20.7 27.9,23.3 25.8,11.5 50.1,2.5 55.6,0.5 5.5,-2 16.9,-6.4 27.1,-17.2 10.5,-11.2 14.1,-23.3 17.8,-35.5 1.2,-3.9 4.3,-15.2 5.1,-30.3 0.2,-3.2 0.4,-10.7 -2.1,-31.9 -2.4,-20.2 -4.5,-36.8 -10.4,-58.3 -3.1,-11 -6.2,-20 -8.5,-25.9 8.7,-6.2 15.7,-11.9 20.7,-16.3 9.9,-8.6 19.9,-17.3 29.6,-31.1 1.9,-2.7 3.5,-5.3 6.9,-10.7 6.6,-10.6 13.6,-22.9 16.7,-28.6 0.7,-1.3 2.4,-4.3 4.8,-8.3 0.7,-1.2 1.6,-2.6 2.8,-4.4 2.4,-3.6 3.7,-5.4 5.3,-8.5 1.7,-3.4 1.6,-4.4 1.2,-4.9 z m -122.1,260.5 c -4.5,11.3 -10.6,26.2 -24.5,30.6 -1.7,0.5 -12.3,3.8 -22,-2 -8.2,-4.9 -10.8,-13.3 -12,-17.4 -3.5,-11.3 -1,-21.5 1.3,-29.4 10.3,-34.9 28.6,-60.7 34.2,-68.4 5.8,-8 14.4,-18.9 26,-30.9 3.3,21.7 4.3,39.8 4.6,52.6 1,40.5 -4.5,57 -7.6,64.9 z"
           id="path3"
           style="stroke-width:1.132" />
        <path
           d="m 1307.9,1021.4 c 0.2,-3.1 0.8,-11 3.9,-20.8 0.5,-1.6 1,-3 1.4,-4.2 -2,0 -3.8,0 -5.6,0 -14.5,-0.1 -35.4,-0.1 -61.7,0.3 1,-3.2 2.3,-7.9 3.6,-13.7 2,-9.2 3.1,-13.9 2.7,-20 -0.2,-3.6 -0.5,-8.9 -3.6,-14.9 -1.4,-2.7 -5.5,-10.7 -14.8,-14.4 -2.2,-0.9 -11.4,-4.6 -18.3,-0.1 -1.9,1.3 -3.7,3.2 -6.6,10.5 -4.1,10.1 -5.7,18.4 -6.1,20.2 -1.3,6.9 -3.7,16.6 -8.2,28.4 -9.8,-1 -17.9,-1.6 -23.4,-1.9 -16.9,-1 -25.2,-0.7 -68.8,-0.4 -0.1,0 -5.9,0 -13.9,0.3 -7.7,0.3 -11.6,0.5 -15.1,1 -1.4,0.2 -8.4,1.4 -16.9,5.2 -11.1,5 -23.8,13.9 -22.3,18.2 0.5,1.4 2.5,2.5 3.7,3.1 2.3,1.2 4.4,1.4 5.4,1.5 5,0.4 9,-0.3 14,-0.7 7.7,-0.5 18,-0.2 19.5,-0.3 h 1.7 c 3.1,-0.1 8,-0.1 17.6,0.1 17,0.4 30.4,1 34,1.2 13.6,0.7 32.8,1.7 56.9,3.2 -5.7,24.3 -11.3,48.9 -16.9,73.7 -3.1,13.9 -6.1,27.8 -9.1,41.6 -17.5,15.7 -35.1,31.5 -52.6,47.2 -2,-6.3 -4.7,-15.4 -7.5,-26.7 -3.8,-15.4 -5.8,-23.2 -6.5,-33.7 -0.6,-8.7 -1.3,-19.9 2.7,-33.2 1.7,-5.8 3.7,-9.7 7.6,-17.4 0,0 1.5,-3 8.1,-11.3 1,-1.2 2.7,-3.4 5.1,-3.4 0.4,0 1.6,0 2.3,0.8 1.1,1.2 0.5,3.6 -2.6,10.1 -1.8,3.8 -3.1,6.1 -4.9,9.3 -3.6,6.7 -5.4,10.1 -5.7,12.3 -0.1,1 -1,7 2.6,12.3 5.6,8.4 17.6,7.8 19.7,7.7 10.5,-0.6 17.3,-7.3 19.1,-9.2 8.9,-9.1 9.6,-20.9 10,-28.7 0.5,-9.2 1.2,-23.5 -9.2,-35.6 -0.8,-0.9 -13.5,-15.2 -32.4,-14 -2.2,0.1 -12.3,0.9 -24.3,10.5 -26.6,21.1 -30.8,59.9 -32.4,75.1 -2.3,21.5 1.2,27.5 -4.5,45.7 -3.9,12.3 -9.8,23.2 -14.8,32.4 -1.4,2.7 -6.4,10.1 -16.2,25 -4.4,6.6 -7,10.4 -12.1,13.3 -0.8,0.5 -11.6,6.2 -17.9,1.7 -3.8,-2.7 -4.7,-8.3 -4.1,-18 0.9,-15.4 4.7,-26.5 10.6,-43.6 4.8,-13.7 7.9,-28 12.9,-41.5 3.2,-8.7 6.7,-17 2.7,-22.8 -3.2,-4.7 -9.9,-5.8 -12.3,-6.1 -1.6,-0.3 -8.5,-1.4 -14.4,2.2 -5.1,3.1 -7.1,8.2 -9.8,16.9 -2.5,8.2 -5.5,19.5 -7.8,33.4 l -2.4,10.6 c -2.3,14.4 -3.6,26.7 -4.4,35.9 -1.3,14.4 -1.2,19.8 0,25.9 1.6,8.3 3.4,17.4 11.1,24.3 10,9 24.8,9.6 35.2,5.8 5.5,-2 8.7,-4.9 14.1,-9.7 8.5,-7.6 16,-16.8 34.7,-48.9 3.2,-5.6 5.8,-10.1 7.5,-13.1 2.7,11.4 5.4,22.7 8.2,34.1 -19.1,21.1 -33.1,39.6 -42.6,53 -8.5,12 -12.8,18.1 -17.2,27.1 -5.3,10.7 -16.3,33.8 -13.5,63.1 0.7,7.1 1.4,14.4 5.4,23.2 2.4,5.4 12.8,26.6 35.3,32.6 10.7,2.9 20.2,1.2 23.8,0.5 2.4,-0.4 9.8,-2 18.3,-6.8 2,-1.1 8.7,-5 15.9,-12.7 11.6,-12.4 16.3,-25.7 20.3,-37.4 4,-11.9 5.5,-21 7,-29.9 1.1,-6.8 3.9,-25.5 3.1,-49.3 -0.3,-9 -1.1,-15.1 -2.2,-24.5 -0.8,-6.5 -1.5,-11.1 -3.1,-16.6 -0.4,-1.3 -1.1,-3.9 -3.4,-9.8 -1.9,-4.8 -4.6,-11.4 -8.2,-19.3 13.2,-11.3 26.4,-22.5 39.5,-33.8 -1.6,15.2 -2.6,28.1 -3.4,37.8 0,0 -2.3,29.5 -3,60.2 -0.1,2.5 -0.1,6.8 0.1,12.5 0.3,8.5 0.6,15.4 2.2,22.6 0.6,2.7 5.6,23.9 17.5,30.2 6,3.2 12.9,4.1 12.9,4.1 2,0.3 3.4,0.3 3.7,0.3 8.2,0.3 14.7,-2.8 17.8,-4.2 2.9,-1.4 6.2,-3.9 12.7,-8.9 0.7,-0.5 8.5,-6.6 9.4,-11.5 0.1,-0.5 0.4,-1.8 -0.4,-2.6 -0.7,-0.7 -1.9,-0.6 -2.9,-0.4 -3.4,0.6 -5.9,1.9 -7.2,2.6 -1.2,0.6 -6.2,3 -11.6,1.9 -0.8,-0.2 -4.1,-0.9 -6.8,-3.7 -2.8,-2.8 -3.5,-6.2 -3.8,-7.8 -3.5,-17 -4,-27.6 -4,-27.6 -0.3,-5.9 -0.6,-11.3 -0.7,-17.6 -0.1,-2.9 -0.1,-5.6 -0.1,-9.1 0,-2.7 0.1,-9.2 0.9,-17.7 1,-11.4 2.5,-20.3 3.6,-26.6 0.7,-3.7 2.3,-12.5 3.1,-17.1 0.9,-5 1.2,-6.1 1.9,-10.4 3.6,-20.7 2.9,-21.5 6.1,-37.9 2.4,-12.5 4.7,-21.9 6,-27.1 1.2,-4.9 2.7,-10.6 5,-18.1 3.4,-11.2 4.8,-13.8 7.9,-24.4 2.1,-7.1 2.1,-8.3 4.3,-16.3 1.8,-6.8 4.6,-16.4 8.6,-28.2 21.7,0.5 39.4,0.5 52.3,0.3 9.3,-0.1 15.3,-0.3 20.2,-0.6 0.1,-2.9 0.7,-5 0.8,-6.8 z m -224.5,319.1 c -2.5,11.2 -5.4,19.4 -11.7,27.1 -2.7,3.2 -9.4,11.1 -19.9,13 -2.3,0.4 -6.6,1.1 -11.2,-0.8 -1,-0.4 -5,-2.1 -8.7,-7.4 -5.6,-7.9 -6.5,-18 -6.1,-27.6 0.8,-22.4 8.3,-39.3 10.4,-43.7 5.4,-11.6 11.1,-19 20.9,-31.8 9.7,-12.6 18.6,-22.3 25,-28.9 4.2,18 5.7,33.3 6.2,44.3 0.4,8.6 0.9,30 -4.9,55.8 z"
           id="path4"
           style="stroke-width:1.132" />
        <path
           d="m 1385.4,1013.9 c -3.2,-6.5 -3.5,-8.8 -6.4,-13.1 -1.9,-2.9 -3.9,-5.1 -5.4,-6.5 -6.4,0.7 -13.2,1.1 -23.5,1.6 -4.8,0.2 -9.2,0.4 -13.3,0.5 1.2,3.8 1.7,8.2 3.7,18.1 0.8,3.8 1.5,7.1 2.1,9.9 1.8,-0.2 3.4,-0.5 4.9,-0.7 7.9,-1.2 22.8,-3.4 38.9,-7.4 -0.2,-0.9 -0.6,-1.6 -1,-2.4 z"
           id="path5"
           style="stroke-width:1.132" />
        <path
           d="m 1472.8,944 c -1.2,-0.9 -3.6,-0.1 -3.7,-0.1 -0.1,0.1 -0.2,0.1 -0.2,0.1 -3.8,2.9 -5.8,5.2 -5.8,5.2 -2.3,3 -5.5,6.9 -9.8,11.1 -0.5,0.5 -3.3,3.2 -7,6 -8.6,6.8 -17.9,11.4 -23.2,13.9 -13.7,6.3 -26.4,9.8 -34.8,11.6 0.6,0.3 1.3,0.7 2.1,1.1 4.1,1.9 3.7,1.2 10.6,4 7.3,3 6.5,3.3 11.1,4.9 1.8,0.6 4.1,1.3 9.1,2.9 3.2,-1.5 6.2,-3 9,-4.7 3.6,-2.1 9.1,-5.4 15,-11.1 6.3,-6 11.8,-13.6 13.7,-16.3 0.6,-0.8 1.5,-2.1 2.8,-3.9 4.9,-6.8 6,-8.5 6.6,-9.5 3.1,-4.8 3.8,-6.7 4.3,-8.1 0.5,-1.8 1.8,-5.9 0.2,-7.1 z"
           id="path6"
           style="stroke-width:1.132" />
      </g>
      <g
         id="g13"
         style="stroke-width:1.132">
        <path
           d="m 787.85655,63.31556 c -0.3,-0.4 -1,-1.1 -2,-1.3 -1.1,-0.2 -2.1,0.3 -2.6,0.5 -4,2.1 -5.9,3.2 -6.6,3.8 -4.7,3.6 -18.7,11 -25.9,14.8 -4.2,2.2 -9.6,5.1 -17,8.2 -5.1,2.1 -10.3,4.3 -17.5,6.1 -5.9,1.5 -10.9,2.2 -14.5,2.6 6.4,-9.4 11.4,-17.2 15.1,-23.1 2.5,-4 6.9,-11 5.1,-12.9 -0.6,-0.6 -1.9,-0.8 -2.9,-0.6 -1.8,0.3 -2.9,1.9 -3.3,2.4 -2.4,3.2 -6.3,5 -9.2,7.7 -5.3,4.9 -22.2,14.9 -43.1,17.4 -8.2,1 -14.4,0.5 -17.7,0.3 -15.4,-1.1 -39.3,-1.8 -76.1,0.3 1,-2.6 2.1,-6.3 2.6,-10.7 0.3,-3 0.5,-7.8 -0.6,-13.1 -0.8,-3.9 -3.9,-15.2 -14.3,-23 -2,-1.5 -12.8,-9.6 -20,-5.7 -1.8,0.9 -2.7,2.4 -4.7,5.2 -2.6,3.8 -3.8,7.1 -6.4,15.2 -2.4,7.5 -3.5,11.2 -4.5,14.9 -1.4,5.6 -2.5,11 -3.3,16.1 -3,0 -6,0 -9,0.1 0.9,-2.9 1.9,-7 2,-12.1 0.1,-2.9 0.2,-6.4 -0.8,-10.1 -1.9,-6.9 -6.7,-10.9 -13.5,-16.6 -3.5,-2.9 -7.4,-5.1 -15.2,-9.6 -6.2,-3.6 -9.2,-4.8 -12.5,-4.1 -0.8,0.2 -3.2,0.8 -6.3,3.7 -5.5,5.2 -7.1,12.1 -7.8,15.2 -2.2,9.4 -4.7,19.8 -7.7,32 -3,0.1 -7.9,0.2 -13.8,0.4 -49.5,1.2 -58.8,-0.7 -83.1,2.1 -22.2,2.5 -34,6.3 -39.1,8 0,0 -17.8,6.1 -33.6,18 -1.9,1.4 -3.6,3.1 -3.6,3.1 -0.4,0.4 -1,1 -1.8,1.9 -1.4,1.6 -2.5,2.9 -3.1,4.7 -0.4,1.3 -0.7,2.2 -0.3,2.8 1.2,1.8 8.7,-1.3 10.9,-2.2 7.6,-3.1 16.1,-5.2 33.3,-8.7 5.9,-1.2 14.7,-2.6 25.9,-3 -1.9,2.1 -13.4,15 -12.4,22.3 0.2,1.2 0.6,1.7 0.8,1.9 2.2,2.2 7.9,-1.5 17.8,-4.3 0.8,-0.2 3.4,-0.8 8.5,-2 23.2,-5.2 43,-6.9 43,-6.9 10.9,-0.9 25.3,-1.5 42.4,-0.3 -4.7,20.1 -9.4,40.2 -14,60.3 -4.6,19.8 -9.1,39.7 -13.5,59.6 -11.4,15.3 -24.3,30.7 -28.6,28.4 -0.9,-0.5 -2.1,-2.1 0.3,-17.4 2.4,-15.1 6.5,-31.5 9.5,-48.3 0.3,-1.5 1.7,-9.5 -0.7,-18.9 -1.5,-6 -3.3,-7.7 -4.1,-8.3 -4.6,-3.8 -12.4,-2.7 -17.4,0.1 -1.3,0.7 -2.2,1.5 -2.6,1.8 -10.2,8.6 -19.4,22.5 -19.4,22.5 -8.6,13 -1.2,0.3 -14,19.9 -15.4,23.6 -21,34 -32.4,51.8 -15.9,24.7 -24.2,37.7 -27.8,36.3 -5,-2 1.7,-30.1 5.4,-45.7 3.5,-14.9 5.8,-23.9 10.5,-36.3 2.5,-6.4 6.9,-17.2 11.5,-32.9 3.2,-11 3.9,-15.9 1.3,-19.9 -3.3,-5 -10.4,-6.4 -18.1,-7.9 -5.6,-1.1 -8.6,-1.7 -12,-0.3 -5.1,2.1 -7.4,7.4 -10,14.3 -5.3,14.5 -8,26.2 -8.4,27.8 -1.9,8.2 -6.2,18.2 -14.9,38.1 -6.6,15.2 -10.4,24.1 -16.7,35.2 -6.9,12.3 -23.2,41.8 -30.8,39.3 -5.1,-1.7 -4.4,-17.3 -3.7,-30 0.3,-6.9 1.2,-15.4 6.6,-39.8 5.9,-26.5 11.1,-44.3 12.6,-49.4 4.1,-13.8 6.1,-20.7 9.7,-29.8 6.4,-16.1 13.2,-28.7 16.5,-34.7 3.7,-6.7 6.1,-10.6 12.9,-23.1 3.6,-6.6 5.3,-9.8 7.5,-14.1 3.5,-7 3.7,-9 11.9,-26.4 4.6,-9.7 6.5,-13.4 8.5,-20.3 2.5,-8.7 3.2,-15.5 3.6,-20.3 0.8,-8.8 1.1,-13.3 -0.6,-18.7 -0.9,-2.7 -2.8,-8.5 -8.2,-12.8 -7.6,-6 -16.9,-4.9 -21.4,-4.4 -2.5,0.3 -7.6,0.9 -13,4.2 -4.7,2.8 -7.5,6.4 -9.6,9.3 -8.3,11.7 -12.2,24.4 -13.8,29.4 0,0 -7.6,23.4 -10.2,32.9 -4.4,16 -9.1,31.9 -13.3,48 -6.1,23.4 -15.8,60.3 -27.6,105.6 -16.7,-0.4 -33.4,-0.8 -50,-1.1 0.2,-2.9 1.4,-17 1.7,-19.9 2.5,-30.5 2.8,-33.4 3.4,-39.7 0,0 2.9,-26.1 12.3,-46 1.4,-2.9 3.9,-7.6 7.4,-7.8 2.7,-0.1 4.9,2.5 5.7,3.6 2.9,3.5 2.5,6.6 4.1,12.5 1.7,6.4 2.8,10.5 6.1,12.9 4.2,3 9.7,1.8 15.7,0.5 4.8,-1.1 10.8,-2.3 13.8,-7.3 0.8,-1.3 1.6,-3.2 1.8,-8.2 0.4,-9.8 -1.8,-18 -3.4,-23 -1.7,-5.2 -3.7,-11.3 -8.3,-18.1 -3.2,-4.8 -9.3,-13.9 -21.2,-19.5 -16.9,-8 -33,-2.8 -35.6,-1.9 -11.9,4 -18.8,11.7 -21.8,15.2 -2.5,2.9 -7.3,8.9 -13.4,26.6 -2.2,6.5 -6,18.5 -10,43.4 -2.1,13.1 -2.5,18.5 -5.1,38.5 -2.2,16.9 -4.2,30.6 -5.4,39.2 -7.7,-0.2 -14.2,-0.1 -19,0 -0.5,0 -0.9,0 -1.3,0 -7.3,0.3 -14,0.7 -20.9,1.5 -14.1,1.5 -15.7,2.7 -16.6,4.1 -1.9,3.1 -0.4,6.9 -0.3,7.2 1.2,3 3.8,4.6 9.5,7 8.3,3.6 13.5,5.8 21.6,7.3 5.8,1.1 11.1,1.4 14.5,1.6 3.2,0.2 5.9,0.2 7.9,0.3 -2.9,24.6 -5.7,45.6 -8.2,62.3 -3.9,26.7 -7.5,47.6 -10.2,63.3 -3.5,20.1 -4.2,24 -4.6,26 -0.5,2.5 -1.9,8.8 -3.4,17.6 -0.5,3.1 -1,5.5 -1.1,6.9 -0.4,2.7 -2.8,21.4 9.7,32 12.4,10.5 30.4,4.5 31.5,4.1 2.2,-0.8 8.8,-3.2 14,-9.5 3.7,-4.6 5.2,-9.2 6.3,-13.8 3.6,-14.3 4,-26.2 4.3,-31.5 0.8,-16.9 1.2,-9.1 3.2,-40.3 1.2,-19.3 0.9,-20.3 2,-33.9 0.4,-4.7 1.4,-13.1 3.2,-30 2.1,-19.2 2.9,-24.5 3.7,-30 1.4,-9.1 2.7,-16.5 3.7,-21.4 15.2,0 30.5,0 45.7,-0.1 -3.1,11.5 -5,21.5 -6.3,29.2 -2.8,24 -4.2,35.9 -1.4,47.7 1.5,6.4 3,12.4 8.3,18 6.4,6.6 15.6,9.5 23.7,8.9 3.4,-0.3 5.8,-1.1 9.7,-2.6 2.1,-0.8 9.7,-3.7 19.8,-11.5 7.8,-6 12.8,-11.6 17.5,-17 5.3,-6 9.3,-11.4 12.1,-15.5 0.8,3.6 2.9,10.7 9.2,17.1 1.4,1.4 10.8,10.7 24.9,10.4 6.9,-0.2 11.9,-2.5 15.7,-4.4 9.5,-4.6 15.3,-11.2 20,-16.7 15.5,-18.5 26.3,-36.1 33.4,-48.1 5.5,-9.3 9.9,-17.2 13,-22.9 -0.4,5.2 -0.7,12.8 0.6,21.8 2,13.7 3.3,23.1 10.7,27.8 9.8,6.3 24,0.4 26.7,-0.8 4.6,-1.9 7.9,-4.4 10.1,-6.3 -2.6,18.3 -4.2,33.3 -5.2,44.2 -0.7,7.3 -1,12.2 -1,18.4 0,9.1 0.1,19.5 3.6,32.3 3.8,13.9 9.1,20.9 10.8,23.1 3.6,4.6 6.6,6.8 7.5,7.4 2.4,1.7 9,6 18.1,6.3 4.8,0.1 8.8,-1.2 16.9,-4 0.3,-0.1 8,-2.8 16.5,-8.3 2.4,-1.6 5.7,-3.9 6.3,-7.5 0.1,-0.6 0.3,-2.2 -0.5,-3.2 -1.3,-1.6 -4.3,-0.9 -8,-0.4 -6.7,0.9 -12.3,1.7 -16.1,-0.8 -1.5,-1 -2.6,-2.3 -4.3,-6.3 -5,-11 -5.9,-19.9 -5.9,-19.9 -1.4,-13.6 -0.4,-25.1 0.1,-30.5 1.7,-18.4 2.5,-27.6 4.2,-40.6 2.7,-20.8 5.3,-35.5 6.4,-41.4 1.7,-9.5 2.9,-16 5.1,-25 1.7,-6.9 3.8,-14 7.9,-28 4.7,-16 7.1,-23.9 9.2,-30 2.2,-6.3 3.4,-9.3 11.1,-29.1 4.6,-11.9 8.3,-21.2 10.3,-26.6 4.9,0.3 9.8,0.5 14.7,0.8 -2.1,10.1 -5.2,25.2 -9.2,43.5 -13.2,61.3 -16.2,70 -21.6,100.3 0,0 -5.3,29.6 -8.3,87.1 -0.2,2.9 -0.9,19.9 5.4,40 4.3,13.7 8.7,19.1 12.1,22.3 1.6,1.5 12.6,11.8 25.7,9.9 4.4,-0.7 8.3,-2.6 11,-4 1.9,-1 6.4,-3.4 11.1,-7.7 0,0 2.9,-2.7 5.8,-7.1 2.2,-3.3 2.2,-4.4 1.9,-4.9 -0.6,-0.8 -2.2,-0.9 -3.3,-0.5 -1.1,0.4 -1.8,1.2 -2,1.5 -2.3,2.8 -7.6,3.9 -11.1,3.2 -2,-0.4 -3.8,-1.4 -6,-3.6 -5.9,-5.8 -8.2,-13.7 -9.8,-20.7 -2.1,-9.4 -2.9,-17.5 -3.2,-24.3 -0.6,-11.6 0.1,-20.5 0.6,-27.1 0.7,-8.8 1.6,-14.9 3.5,-27.1 1.2,-8.1 2.8,-18.2 5.6,-31.2 0.7,-3.4 0.6,-2.8 4.8,-20.2 5.4,-22.8 5.4,-23.2 6.7,-28.2 2,-7.6 4.2,-14.6 8.6,-28.4 5.7,-18 7,-21.2 10.6,-32.5 2.7,-8.6 6.4,-20.9 10.3,-36 9.8,0.9 25.2,2 44.4,2.7 16.7,0.6 15.6,0 33.1,0.6 26.5,0.9 34.3,2.3 52.6,1.3 1.2,-0.1 11.4,-0.7 24.6,-3.4 10.5,-2.1 15.4,-4.1 19.6,-6.3 5.1,-2.7 8.8,-5.7 10.8,-7.3 1.8,-1.5 4,-3.4 11.3,-11 3.9,-4.1 6.5,-7 10.5,-11.2 0,0 8.4,-9.1 19.9,-24.6 0.4,-1.3 3.9,-6.1 2.5,-8.2 z m -547.7,2.4 c 2,-7.3 4.2,-14.9 7.8,-24 6.2,-15.5 8.9,-16.3 10,-16.2 0.5,0.1 0.8,0.4 1,0.5 2.4,2 0.8,8.2 -3.6,19.4 -6.7,17.2 -13.4,28.8 -14.8,31.3 -2.4,4.2 -4.6,7.7 -6,9.9 2.2,-8.4 4.1,-15.6 5.6,-20.9 z"
           fill="#9c59d1"
           id="path7"
           style="stroke-width:1.132" />
        <path
           d="m 817.85655,170.01556 c -6.3,-7.4 -14.4,-9.8 -17,-10.5 -11.2,-3.1 -20.7,0.2 -26.9,2.4 -22,7.8 -34.6,25.9 -39.4,33.8 0,-3.7 0,-8.5 -0.5,-13.9 -0.5,-6.2 -0.8,-9.3 -2,-13.4 -2.1,-7.1 -5.5,-11.7 -6.3,-12.8 -2.1,-2.9 -5.3,-7.1 -11.1,-10.1 -2.5,-1.3 -7.5,-3.9 -13.7,-2.8 -1.9,0.3 -4.2,0.7 -6.3,2.4 -3.3,2.8 -4,7.4 -4,16.2 0,8.1 0.6,13.2 1,18.8 0.7,8.6 0.2,8.1 0.9,27.1 0.2,4.7 0.5,11.4 0.9,19.5 -3.6,5.6 -8.8,13.3 -15.4,22 -4.3,5.7 -7.7,10.2 -12.8,15.8 -9.9,11.1 -17.8,17.4 -30.1,27.2 -6.3,5 -8.4,6.4 -11.6,7.5 -10.9,3.8 -21.2,-0.3 -23.7,-1.4 -5.4,-2.3 -9.1,-5.6 -11.4,-7.9 17.1,-15.4 31.4,-28.2 46.1,-41.4 0,0 5.5,-4.9 27.6,-28.5 6.2,-6.6 11.3,-12.2 14.3,-21.3 1.5,-4.5 4.6,-13.8 0.3,-22.2 -3.7,-7.3 -11,-10.3 -14.8,-11.7 -24.6,-9.6 -53.4,5.7 -59.5,8.9 -29.5,15.7 -42.9,41.1 -46.5,48.5 -4.2,8.7 -17.2,36.3 -8.7,67.9 2.2,8.2 5.3,19.8 15.6,29.4 20.9,19.5 51.9,12.7 55.8,11.7 16.4,-3.9 27.2,-13.2 40.9,-25 10,-8.7 17.4,-17.1 22.2,-23.2 -0.6,9.7 -1.2,17.6 -1.7,22.8 -1.3,14.7 -1.3,29.4 -2.5,44.1 -0.5,5.7 -1,10.8 2,15.7 4.6,7.6 13.8,8.8 14.3,8.8 1.6,0.2 9.2,0.9 14.4,-4.2 2.6,-2.5 3.5,-5.5 4.5,-9.1 3,-11.4 3.4,-20.3 4.2,-28.6 0.4,-3.7 1.2,-9.5 2.8,-21.1 1.4,-9.6 2.5,-17.8 3.6,-23.5 4.3,-22.7 13.5,-39.8 15.5,-43.4 5.5,-10 12.1,-17.7 25.4,-33.2 10.8,-12.6 15.1,-16 21.1,-18.2 9.5,-3.5 20,-2.1 24.9,-0.2 3.8,1.5 5.1,2.4 5.1,2.4 3.4,2.3 5.1,5 7.1,4.4 0.6,-0.2 1,-0.5 1.2,-0.8 2.9,-2.5 3.6,-17.7 -5.8,-28.9 z m -212,52.2 c 4.2,-4.7 14.9,-15.6 31.9,-22 5.5,-2.1 15.2,-4.9 16.2,-2.9 0.3,0.6 0.2,2.3 -15.1,14.7 -13.8,11.3 -12.9,9.3 -22.3,17.2 -5.4,4.6 -10.6,8.3 -20.9,15.6 -2.6,1.9 -4.4,3.1 -5,2.6 -1.7,-1.4 5.8,-14.7 15.2,-25.2 z"
           fill="#9c59d1"
           id="path8"
           style="stroke-width:1.132" />
      </g>
      <g
         id="g12"
         style="stroke-width:1.132">
        <path
           d="m 851.05655,199.71556 c -3,1.4 -5.8,3.1 -9.9,6 -13.1,9.2 -21.7,18.9 -24.8,22.6 -9.7,11.5 -16.1,23.1 -20.3,32.7 0.8,-3 1.9,-8.4 0.5,-14.8 -0.9,-3.9 -2.1,-9.6 -6,-11 -5.3,-2 -12.2,5.3 -14.9,8.2 -4.3,4.5 -6.5,9.1 -8.2,12.8 -3.9,8.8 -10.5,24.1 -8.9,43.9 0.9,11.4 3.6,13.1 4.9,13.5 3.8,1.4 8.8,-3.2 9.4,-3.8 1.7,-1.6 2.6,-3.2 6.4,-13 2.4,-6.1 2.6,-7.4 4.1,-10.7 2.4,-5.4 4.9,-9.5 6.6,-12 -3.1,9.4 -8,28.7 -2.6,51.6 3.2,13.4 6.9,29 18.5,36.5 1.1,0.7 8.1,5.1 15.8,12.5 4.8,4.6 6.1,6.7 6.8,8.9 1.4,4.6 -0.6,6.9 -3.2,16.7 -4.7,17.8 -1.5,22.4 -0.4,23.6 0.6,0.6 1.1,0.9 1.5,1 4.4,1 10.3,-10.9 11.3,-12.8 0.6,3.5 0.6,6.4 0.5,8.3 -0.3,4 -1.1,6 -0.3,9.4 0.3,1.2 1.1,4.4 2.8,4.6 1.3,0.2 2.4,-1.3 2.8,-1.8 1.8,-4.3 3.6,-8.5 5.4,-12.8 0.8,1.9 2.2,4.6 4.3,7.7 2,2.9 3,4.4 4,4.2 1.8,-0.4 2.5,-7.6 1.9,-13.9 -0.7,-8.3 -4,-20 -6.4,-29.9 -0.3,-1 -0.7,-3.2 0.4,-4.6 1.3,-1.7 4.1,-1.5 6.2,-1.3 6.9,0.4 13.8,-0.1 20.7,0.3 7.3,0.4 8.2,0.4 9.7,1.3 3.3,1.7 4.9,5 8,11.3 7.1,14.5 7.7,15.9 9.6,18.8 3.5,5.2 7,8.8 11.7,11 1.1,0.5 5.8,2.7 7.4,1 2.1,-2.2 -3.2,-9.4 -1.5,-10.7 1.6,-1.3 7,5.1 11.2,3.3 1.5,-0.6 2.6,-2.2 2.8,-3.8 0.4,-4.2 -6.3,-7.4 -5.6,-8.7 0.7,-1.3 7.2,2.8 11.2,0 1.6,-1.1 2.7,-3.2 2.6,-5.1 -0.3,-3.4 -4.6,-5.9 -11.7,-8.8 -18.2,-7.4 -29.6,-7.3 -30.4,-11.9 -0.4,-2.2 1.8,-4.7 3.1,-6.1 2.3,-2.6 5,-3.6 6.9,-4.3 4.7,-1.8 9,-4.7 13.6,-6.6 10.4,-4.4 17.9,-17.8 24,-28.8 4.3,-7.7 9.8,-19.5 13.3,-35.1 0.6,6.9 3.6,12.2 7.9,13.4 0.4,0.1 1.8,0.5 3.5,0.2 7.1,-1.3 10.6,-13.2 11.7,-17 3.7,-12.5 1.9,-22.9 0,-34.4 0,0 -1.2,-7.3 -6.3,-18.6 -0.9,-1.9 -2.3,-4.9 -5.4,-7.1 -0.7,-0.5 -5,-3.5 -8.2,-2 -2.6,1.2 -3.2,5 -3.7,8.9 -1.4,12.7 0.1,21.6 0.3,30.6 0.1,3.9 0,9.8 -1.2,17.3 -1.6,-2.3 -4,-5.9 -6.5,-10.4 -8,-14.5 -8.5,-22.6 -12.3,-32.6 -10.1,-26.5 -33.8,-39.6 -36.6,-41 -8.6,-4.6 -16.6,-6.5 -22,-7.5 2.5,-2.8 5.9,-7 8.8,-12.8 2.1,-4.1 6.1,-11.8 3.8,-13.9 -1.8,-1.7 -7.5,0.2 -10.7,3.6 -1.9,2 -2.3,4 -3.2,3.8 -1.7,-0.2 -2.3,-7.2 -2.6,-10 -0.5,-5.4 0.1,-7 -1.1,-7.9 -2,-1.4 -6.8,0.5 -9.3,3.7 -2.6,3.4 -2.1,7.2 -3.3,7.3 -1.1,0.1 -1.6,-3.1 -4.5,-7.1 -1.6,-2.3 -4.2,-6.1 -6.4,-5.7 -2.9,0.5 -5,8.7 -3.8,15.3 2.1,11.8 14.5,18 17.4,19.3 -5,0.2 -12.7,1.3 -21.1,5.2 z"
           fill="#ffffff"
           id="path1"
           style="stroke-width:1.132" />
        <path
           d="m 850.45655,243.71556 c -0.2,-1.4 -0.6,-3.5 -2.4,-4.9 -2.2,-1.8 -5,-1.3 -5.5,-1.2 -2.1,0.4 -3.5,1.6 -4.3,2.4 -0.9,0.8 -1.4,1.5 -2.4,2.8 -1.1,1.5 -1.5,2.4 -2.9,4 -0.3,0.3 -0.5,0.5 -0.9,1 -3.4,3.5 -4,3.8 -4.8,4.8 -2.4,3.1 -1.8,7.2 -1.8,7.5 0.2,1 0.6,4 3.1,5.6 2.5,1.6 5.5,0.8 7.5,0.2 3.4,-1 5.5,-3 7,-4.5 2.7,-2.7 4,-5.4 5,-7.3 1.5,-3.2 3,-6.4 2.4,-10.4 z m -15.8,7.1 c 0.1,-0.8 0.2,-2.1 1.2,-3.3 0.3,-0.4 1.2,-1.2 2.4,-1.4 0.6,-0.1 1.8,-0.4 2.8,0.4 1,0.9 1,2.3 0.9,2.5 -0.1,1.1 -0.7,1.8 -1.3,2.6 -0.5,0.6 -1.4,1.7 -3,2.1 -0.7,0.2 -1.8,0.5 -2.5,-0.1 -0.7,-0.5 -0.6,-1.8 -0.5,-2.8 z m 13.1,-3 c -0.6,3.5 -2.4,5.9 -4.1,8.3 -1.8,2.4 -3.3,3.7 -3.9,4.2 -1.9,1.5 -3.4,2.2 -4,2.5 -1.8,0.8 -2.9,1.2 -4.2,0.9 -1.6,-0.4 -2.8,-1.7 -3.3,-3.1 -0.7,-1.7 -0.1,-3.3 0.5,-4.9 0.1,-0.3 0.5,-1.5 1.5,-2.8 0.8,-1.1 1.6,-1.9 2.3,-2.4 -0.1,0.3 -0.6,3.2 1.1,4.8 0.6,0.5 1.2,0.7 1.6,0.8 1.8,0.6 3.4,-0.2 4.1,-0.4 2.8,-1.2 4,-3.9 4.4,-4.8 0.4,-0.9 0.9,-2.5 0.4,-4.1 -0.1,-0.2 -0.4,-1.1 -1.3,-1.9 -1.8,-1.6 -4.3,-1.3 -4.7,-1.2 0.4,-0.6 1,-1.4 1.9,-2.1 0.9,-0.7 2.1,-1.7 3.8,-1.7 0.4,0 1.9,0 3.1,1.1 1.7,1.7 1.1,5 0.8,6.8 z"
           fill="#393939"
           id="path9"
           style="stroke-width:1.132" />
        <path
           d="m 911.75655,252.61556 c -0.5,-3.7 -1.2,-6.3 -2.2,-8.6 -1.1,-2.5 -2,-3.6 -3.1,-4.3 -0.5,-0.3 -1.9,-1.2 -3.5,-1 -2.4,0.3 -3.8,2.6 -4.5,3.8 -1.4,2.3 -1.6,4.4 -1.8,6.5 -0.4,4.8 0.8,8.5 1.2,9.5 1,2.8 2,5.5 4.6,7.1 0.7,0.4 3,1.8 5.3,1 2.5,-0.9 3.4,-3.7 3.9,-5.3 0.8,-2.6 0.6,-4.8 0.1,-8.7 z m -3.2,-1.7 c 0,0.3 0.1,0.9 0,2.1 -0.1,0.9 -0.2,1.4 -0.4,2.1 -0.2,0.7 -0.4,1.2 -1,1.8 -0.2,0.2 -0.8,0.8 -1.7,0.9 -0.3,0 -0.8,0.1 -1.3,-0.2 -0.7,-0.4 -0.8,-1.4 -0.9,-2.2 -0.1,-1.1 -0.2,-2.6 0.7,-4.1 0.3,-0.5 1.2,-1.9 2.7,-2.1 0.2,0 1,-0.1 1.6,0.4 0.1,0.3 0.2,0.6 0.3,1.3 z m 1,9.1 c -0.2,1.2 -0.6,3.3 -2.3,4.1 -1.3,0.6 -2.6,0.1 -2.9,0 -2,-0.8 -2.9,-2.9 -3.8,-5.1 -0.5,-1.4 -2,-5.3 -1.4,-10.6 0.2,-2.4 0.8,-4 1.8,-5.3 0.4,-0.5 1.5,-1.8 2.7,-1.6 0.4,0 0.6,0.2 0.9,0.4 0.9,0.6 1.4,1.4 1.7,2.1 0.5,1 1.1,2.4 1.7,3.9 -0.4,-0.2 -1.6,-0.5 -3,-0.1 -1.3,0.4 -1.9,1.3 -2.4,1.9 -1.9,2.6 -1.3,5.6 -1.2,6 0.2,1 0.6,2.8 2.1,3.5 1.2,0.6 2.4,0.2 2.9,0 1.9,-0.6 2.9,-2.2 3.1,-2.6 0.2,0.7 0.3,1.9 0.1,3.4 z"
           fill="#393939"
           id="path10"
           style="stroke-width:1.132" />
        <path
           d="m 929.85655,255.21556 c -0.8,-10 -3.4,-16.7 -6.6,-25 -0.6,-1.5 -1.4,-3.6 -3.3,-5.9 -2.3,-2.8 -4.9,-4.2 -6.8,-5.2 -1.4,-0.8 -4.8,-2.5 -9.4,-3.1 0,0 -9.1,-1.1 -18.4,4.5 -1.6,0.9 -4.2,2.9 -5.6,4.2 0,0 -0.2,0.2 -0.4,0.3 -1.6,1.5 -3,2.7 -3,2.7 0,0 -2.8,-5.2 -3.2,-6 -1.6,-2.8 -4.1,-3.9 -8.4,-6 -1.6,-0.8 -4.2,-1.9 -7.6,-2.5 -9,-1.4 -16.4,2.8 -19.7,4.7 -0.7,0.4 -3.6,2.1 -7,5 -8.6,7.5 -12.5,16.5 -15.3,23.3 -3.5,8.4 -4.8,15.2 -5.2,17.8 -2,11.9 -0.1,18.4 0.3,19.9 1,3.2 2.1,6.9 5.6,9.5 3.6,2.8 7.7,2.9 9.3,3 3.9,0.1 6.7,-1.1 9.7,-2.4 2.9,-1.3 4.9,-2.6 8.9,-5.3 2.2,-1.5 5.1,-3.6 8.4,-6.2 0.5,1.3 1,2.6 1.5,3.9 -1.4,1.2 -3.3,3 -5.3,5.5 -3.2,4 -4.9,7.4 -7.2,12.3 0,0 -2.7,5.7 -5.3,14.8 0,0 -0.8,2.9 -0.6,7.2 0.1,0.8 0.2,2.1 1,3.3 0.2,0.2 0.8,1.1 1.5,1.4 1.9,0.9 4.5,-1.2 6.1,-2.4 3.7,-2.8 7.6,-5.3 11.2,-8.2 4.2,-3.4 3.3,-2.4 8.8,-6.8 4.1,-3.2 6.6,-5.2 9.8,-8.1 2.7,-2.4 4.4,-4 6.6,-6.4 2.1,-2.3 4,-4.4 5.9,-7.7 1.7,-2.9 2.7,-5.6 3.3,-7.5 1,1.6 2.5,4 4.7,6.4 2.8,3 5.2,5.6 9.3,6.8 3.9,1.2 7.2,0.4 8.7,0.1 5,-1.2 8.1,-4.1 9.6,-5.6 4.8,-4.6 6.2,-10.1 6.9,-12.7 0.2,-0.9 0.6,-2.6 1,-8.3 0.4,-6.4 0.6,-10.2 0.2,-15.3 z m -43.8,23.8 c -0.7,6.9 -5.6,12.4 -7,13.9 -7.8,8.6 -15.2,13.9 -22.9,19.9 -3.6,2.8 -9.1,7.2 -15.8,12.9 0.2,-1.6 0.5,-3.9 1,-6.6 0.8,-4.2 2,-10.1 5.4,-16.5 1.7,-3.2 4.7,-8 9.8,-12.8 0.6,0.7 1.6,1.5 3,2.2 5.1,2.6 10.7,0.1 11.8,-0.4 0.9,-0.4 9,-4.2 9.3,-11.6 0,-0.7 0.1,-5.2 -3,-7.9 -3.4,-2.9 -8.4,-1.9 -13.1,-0.9 -4.4,0.9 -7.9,2.6 -10,3.9 -0.2,-0.9 -0.4,-2.8 0.3,-4.9 0.8,-2.2 2.1,-3.5 2.7,-4 3.3,-3 7.7,-3 10.3,-3.1 2.4,0 8.1,-0.1 13,4 1.1,0.9 3.4,2.9 4.5,6.3 0.5,0.8 1,2.7 0.7,5.6 z m -29.9,0.8 c 0.3,-0.9 1.6,-1.3 4.9,-2 4.8,-1.1 6.4,-1.4 8.2,-1.6 4.3,-0.7 4.9,-0.6 5.4,-0.1 1.5,1.4 0.4,4.8 0.1,5.7 -1.2,3.6 -4.3,5.4 -4.8,5.6 -0.5,0.3 -4.3,2.3 -7.6,0.8 -1.5,-0.7 -2.6,-1.9 -3.2,-2.6 -0.3,-0.4 -0.6,-0.7 -0.9,-1 -0.3,-0.4 -0.8,-1.1 -1.3,-1.9 -0.5,-1.3 -1,-2.2 -0.8,-2.9 z m 68.6,-5.5 c -0.8,4.6 -1.9,8.2 -4.3,11.7 -1.5,2 -3.9,5.3 -8.3,6.5 -4.5,1.2 -8.4,-0.7 -9.2,-1.1 -1.1,-0.6 -2.2,-1.3 -6.9,-6.8 -2.1,-2.4 -3.8,-4.5 -4.9,-6 0.2,-1.8 0.3,-5.2 -1.4,-8.8 -2.5,-5.4 -7.3,-7.7 -9.7,-8.9 -7.9,-3.7 -20,-4.4 -26.3,2.2 -3.3,3.5 -4.2,8.1 -4.2,8.1 -0.6,3.3 -0.1,6 0.3,7.5 -1.5,1 -3.7,2.5 -6.4,4.3 -3.6,2.3 -5.4,3.5 -7.1,4.5 -4.1,2.3 -6.6,3.6 -10,3.9 -1.8,0.2 -4,0.4 -6.2,-0.9 -2.2,-1.2 -3.6,-3.5 -4.7,-6.9 -1.3,-4.2 -2.1,-10.3 0,-20.5 2.2,-10.9 6,-18.6 7.9,-22.2 3.2,-6 5.3,-9.8 9.7,-13.9 2.4,-2.2 9.4,-8.4 19.6,-8.9 2.3,-0.1 6.6,-0.3 11.2,2 2.3,1.2 5.4,2.7 7.4,6 1.5,2.5 2,5.5 3.8,5.7 0.7,0.1 1.2,-0.2 1.5,-0.4 3.6,-2.1 10.7,-7.6 12.5,-8.8 5.4,-3.7 12.9,-3.8 18.3,-1.7 4.5,1.8 7,5 8.9,7.5 4.3,5.5 5.6,10.8 7.1,17.4 3.2,13.5 2.2,23.5 1.4,28.5 z"
           fill="#393939"
           id="path11"
           style="stroke-width:1.132" />
        <path
           d="m 991.75655,268.21556 c -0.9,-7.6 -2.6,-12.6 -4.8,-19.6 -0.5,-1.7 -2,-5.9 -5,-10.7 -3.5,-5.4 -5.9,-6.4 -6.9,-6.7 -0.4,-0.1 -4.3,-1.3 -7.5,1 -1.3,0.9 -2.3,2.2 -3.3,5 -2,5.6 -1.7,10.6 -1.6,12 0.4,6.3 -0.1,12.6 0.1,19 0.2,4.6 0.4,11.3 0.6,19.7 -1.5,-3.3 -3.8,-8.3 -6.3,-14.6 -3.8,-9.4 -5.2,-13.9 -7.5,-19.7 -3.9,-9.7 -6.9,-16.8 -12.3,-24.7 -2.3,-3.3 -7,-9.9 -15,-16.2 -10.9,-8.6 -23.4,-13 -31,-15.3 0.4,-0.4 0.7,-0.8 0.8,-1.1 4,-6 3.8,-4.4 5.8,-8 1.9,-3.5 3.7,-7 3.9,-11.7 0.1,-3.4 -0.8,-4.6 -1.3,-5.2 -1.3,-1.5 -3.4,-2.1 -5.1,-2 -1.7,0.2 -3.2,1.4 -6.3,3.7 -1.2,1 -2.2,1.8 -2.9,2.4 0,-2.2 0,-4.5 -0.1,-7 -0.3,-4.5 0.4,-6.3 -0.9,-8.3 -0.2,-0.4 -1.4,-2 -3.3,-2.5 -2.4,-0.5 -4.5,1.2 -6.6,2.9 -1.9,1.5 -4.6,4.2 -6.9,8.6 -0.3,-0.6 -0.8,-1.5 -1.4,-2.7 -2,-3.9 -1.9,-4.6 -2.9,-5.8 -0.6,-0.8 -2.5,-3.2 -5.4,-3.2 -2.8,0 -4.6,2.2 -4.9,2.6 -1.2,1.5 -1.4,3.2 -1.7,6.6 -0.2,1.9 -0.4,3.9 -0.1,6.6 0.1,1.6 0.7,7.7 3.4,12.4 3.1,5.3 8.1,7.3 18.1,11.1 7.4,2.8 8.2,2.2 17.9,5.4 6.9,2.3 12.1,4.1 17.9,7.2 2.7,1.5 11.1,6.3 18.9,15.2 7.8,8.9 11.2,17.6 16.3,30.5 3.6,9.1 5.2,15.2 9.2,23 1.7,3.3 3,6.7 4.6,10 1.2,2.5 2.2,4.6 2.8,7.5 0.3,1.5 0.5,3.4 0.4,6.1 -0.5,10.2 -5.5,22.2 -5.5,22.2 -2.1,5 -4.9,11.6 -10.6,19.1 -5.9,7.8 -12,12.6 -13.8,13.9 -7.3,5.6 -21.2,13.8 -23.6,15.2 -0.1,0.1 -1.2,0.7 -2.4,1.6 -1.4,1.1 -2.2,1.6 -2.8,2.6 -0.2,0.4 -1.3,2.1 -0.9,4 0.4,2.1 2.4,3.2 4,4.1 2.7,1.5 5.1,1.9 6.3,2.1 0.4,0.1 4,1.3 11.4,3.8 2.8,0.9 5.9,2.2 12.2,4.6 0,0 0.9,0.3 2.7,1.2 4.5,2.2 5.2,3.1 5.5,3.9 0.1,0.3 0.6,1.5 0,2.6 -0.7,1.2 -2.5,1.3 -4.1,1.5 -2,0.2 -2.7,-0.2 -5.7,-0.1 -2,0.1 -2.5,0.3 -2.7,0.6 -0.8,1.1 0.3,3.1 0.6,3.6 0.6,1.1 1.1,1.4 2.2,2.7 1.5,1.8 2.2,2.2 2.1,3 -0.1,0.8 -0.9,1.3 -1,1.4 -1,0.6 -2.1,0.3 -3.3,0 -1.5,-0.4 -2.6,-1 -4,-1.9 -1.5,-0.9 -1.7,-1.2 -2.7,-1.5 -0.9,-0.3 -2,-0.6 -2.9,-0.1 -1.1,0.7 -1.3,2.5 -0.9,3.8 0.3,0.9 0.6,0.8 1.5,2.2 0.8,1.2 1.8,2.8 1.3,4.5 -0.1,0.4 -0.2,0.8 -0.5,1 -0.5,0.4 -1.6,0.5 -5.4,-1.6 -2.7,-1.5 -4,-2.3 -5.7,-3.9 -4.8,-4.4 -7.4,-10.3 -9.3,-14.8 -2,-4.7 -2.5,-6.9 -5.2,-12.4 -1.5,-2.9 -2.5,-4.5 -4.2,-6.1 -3.1,-2.8 -6.5,-3.7 -7.8,-4 -1.8,-0.5 -3.1,-0.5 -5.9,-0.6 -7.2,-0.2 -9.1,-0.1 -12.6,-0.2 -4.3,-0.1 -7.8,-0.3 -12.9,0.4 -1.9,0.3 -3.7,0.6 -4.9,2.1 -0.7,1 -1,2.3 -0.6,5.8 0.5,4.1 1.6,6.9 2.5,9.5 0,0 1.5,4.4 2.8,9.4 0.4,1.6 1.7,6.8 2.4,13.5 0.3,3.5 0.6,7.1 -0.3,7.4 -0.8,0.2 -2.1,-2 -3.1,-3.5 -1.3,-2.1 -1.3,-3 -2.7,-5.2 -1.2,-2 -2,-3.1 -3.1,-3.1 -1.1,0 -1.9,1.4 -2.6,2.5 -0.4,0.6 -1,1.8 -1.5,4 -0.6,2.8 -0.3,4.1 -1.3,6.7 -0.6,1.6 -0.9,1.6 -1,1.6 -0.1,0 -0.5,-0.1 -0.9,-3.1 -0.3,-2.6 -0.3,-4.2 -0.3,-4.2 0.1,-5.7 0.2,-7.7 -0.3,-10.5 -0.4,-2.3 -0.9,-3.2 -1.7,-3.6 -1.1,-0.5 -2.5,-0.1 -3.3,0.4 -0.4,0.3 -0.9,0.7 -2.1,2.9 -0.7,1.2 -0.9,1.7 -1.5,3 -0.1,0.1 -1.4,2.8 -3.6,5.8 -0.8,1 -1.2,1.5 -1.6,1.4 -0.6,-0.1 -0.7,-1.5 -0.9,-2.8 -0.2,-1.5 -0.2,-2.6 -0.2,-2.7 0.1,-3.1 0.5,-5.5 0.5,-5.5 0.6,-4 0.5,-4.2 1,-7.2 1.5,-9.3 3.5,-10 3.7,-16 0.1,-2.6 0.2,-6.1 -1.6,-10 -1.8,-3.7 -4.6,-6.1 -8.2,-9 -3.3,-2.7 -6.1,-4.3 -6.9,-4.8 -10.8,-6.5 -17.6,-19.1 -18.6,-21.1 -3.8,-7.4 -4.5,-13.4 -5.6,-24.3 -1.8,-16.8 0.5,-29.9 2.5,-41.5 1.4,-7.8 2.4,-10.9 3,-12.5 0.7,-2 2.1,-5.3 11.4,-20.4 2.9,-4.7 4.4,-7.1 5.8,-9.2 1.6,-2.3 5.2,-7.3 10.6,-13.2 7.7,-8.5 14.9,-14.1 18.1,-16.5 2.5,-1.8 5.2,-3.7 7.1,-4.6 1,-0.5 1.8,-1.2 2.8,-1.6 0.5,-0.2 1.3,-0.5 1.4,-1 0.1,-0.3 -0.2,-0.6 -0.2,-0.7 -0.7,-0.8 -2.8,0 -3.7,0.4 -5.9,2.4 -9.4,4.9 -9.4,4.9 -4.6,3.4 -7.1,5.7 -7.1,5.7 -11.5,10.7 -18.4,19.4 -18.4,19.4 -4.8,6 -10.5,14.2 -16,24.6 0.9,-3.8 0.9,-6.9 0.8,-9.1 -0.2,-3 -0.3,-5.2 -1.8,-7.5 -0.5,-0.9 -2.5,-3.7 -5.7,-4.6 -0.8,-0.2 -4.6,-1.2 -11,3.3 -5.4,3.7 -9.2,8.9 -13.4,17.6 -7.7,16 -9.6,29.2 -10,32.4 -0.5,5.8 -0.6,10.7 -0.5,14.5 0,0 0.1,4.9 1.7,10.2 0.5,1.8 1.5,4.2 3.7,5.5 0.1,0.1 0.2,0.1 0.2,0.1 3,1.6 6.9,-0.3 7.7,-0.7 3.6,-1.7 5.6,-4.9 6.5,-6.5 5.2,-8.8 9.1,-19.4 10.7,-23.9 -0.5,3.6 -1.1,8.6 -1.5,14.4 -0.4,5.1 -0.5,10.1 -0.5,13.4 0,8.8 0.1,18.6 4.2,28.7 7.3,17.9 23.7,28.3 27.1,30 0.3,0.2 1.7,0.8 3.2,2 0.6,0.4 4.6,3.7 6.1,8 1.1,3.1 0.3,5.2 -1.3,12.4 -1.8,7.9 -2.7,11.9 -2.9,15.1 -0.1,1.1 -1.2,16.3 4.1,18.3 1.6,0.6 3.9,-0.1 5.2,-1.1 1.3,-1 1.6,-2.2 2.6,-4.3 0.7,-1.6 1.9,-3.9 3.6,-6.6 v 9.2 c 0,1.8 0.1,4 0.9,6.7 1,3.3 2.1,3.9 2.5,4.2 1.2,0.6 2.8,0.5 3.9,-0.2 1.2,-0.7 1.7,-2 2.6,-5.3 0.5,-2 1.1,-4.6 1.7,-7.7 0.8,1.3 1.4,2.5 2,3.3 1.5,2.3 2.2,3.5 3.1,4.6 1.4,1.8 2.2,2.7 3.2,2.8 1.7,0.2 3.1,-1.4 3.4,-1.7 1.2,-1.3 1.5,-2.9 1.7,-5.7 0.5,-5.3 0.3,-7.7 0.3,-7.7 -0.5,-6 -1,-11.6 -3.6,-18.3 -1.4,-3.5 -2,-7.3 -3.2,-10.9 -0.3,-0.9 -1,-2.8 -0.1,-3.9 0.6,-0.7 1.6,-0.8 2.6,-0.9 4.8,-0.4 9,-0.3 10.5,-0.2 1.5,0 0.9,0 4.3,0.1 3.8,0.1 5.7,0.1 7.2,0.2 5,0.3 7.4,0.4 9.1,1.2 1.8,0.9 3.3,2.3 5.6,6.3 4.1,6.9 4.1,10 7.8,17.8 2.3,4.9 3.7,7.6 6.6,10.6 2.4,2.4 4.5,3.6 8.7,6.1 3.4,2 5.2,2.6 7.2,2.4 0.9,-0.1 2.9,-0.2 4.1,-1.7 1.6,-1.9 0.9,-4.6 0.7,-5.7 -0.4,-1.7 -1.2,-3 -1.8,-3.7 2.7,1.6 5.2,2 6.6,2.1 2.2,0.2 4.8,0.4 6.2,-1.4 1.4,-1.7 0.9,-4.1 0.9,-4.2 -0.1,-0.3 -0.2,-0.8 -1.1,-2.3 -0.5,-0.9 -1.3,-2.1 -2.3,-3.5 0.8,0.1 2,0.2 3.4,0.2 1.1,0 2.1,-0.1 3.2,-0.4 0.3,-0.1 3.9,-1.2 4.8,-4.2 0.8,-2.8 -1.4,-5.5 -2.7,-7.1 -0.5,-0.7 -1.7,-1.9 -4.5,-3.7 -2.5,-1.5 -4.2,-2.2 -9.6,-4.2 -6.7,-2.6 -7.8,-3 -8.7,-3.3 -0.1,0 -0.4,-0.1 -0.8,-0.3 -3.3,-1.1 -5.7,-1.9 -8.5,-2.4 -1.5,-0.3 -3,-0.7 -4.5,-1 -0.2,0 -1.5,-0.3 -2.7,-1.2 -0.8,-0.6 -0.9,-0.9 -0.9,-1 -0.1,-0.6 0.6,-1.1 2,-2.1 1.6,-1 2.4,-1.6 3.2,-1.9 2.5,-1.1 4.6,-2.7 7,-4.1 13.7,-8 22.1,-16.1 22.1,-16.1 7.9,-7.6 12.1,-15.1 14.8,-19.9 6.5,-11.7 9.4,-22.9 10.7,-31.3 0.2,1.5 0.8,3.8 2.2,6.3 1,1.6 2,3.4 3.7,4.3 3.6,1.8 8.2,-0.9 9.2,-1.4 1.6,-0.9 6.1,-4 9.4,-15.8 3.6,-12 2.4,-22.5 1.6,-28.7 z m -119.5,-76.9 c -5.3,-1.9 -7.4,-2.9 -9.5,-4.9 -3,-2.9 -4,-6.1 -5.1,-9.4 -1.2,-3.7 -1.1,-6.8 -0.8,-13.1 0,-0.4 0.1,-1.4 0.6,-1.7 1,-0.5 2.7,1.3 2.9,1.6 1.2,1.3 1.4,2.2 2.7,5.2 1.9,4.2 2.7,4.9 3.5,5.3 0.2,0.1 1.5,0.7 2.9,0.2 1.1,-0.4 1.7,-1.2 2.5,-2.4 1.6,-2.3 3.5,-4.5 5.1,-6.8 0.1,-0.2 1.1,-1.5 2.9,-2.2 0.5,-0.2 0.8,-0.2 1,-0.1 0.7,0.3 0.6,1.9 0.6,3.4 -0.4,9.1 -0.3,6.9 -0.3,7.5 -0.1,1.5 -0.2,3 0.2,4.9 0.4,1.7 0.8,2.2 1.2,2.5 1.2,0.8 2.9,0.2 3.5,0 1.5,-0.5 2.4,-1.4 3.7,-2.8 1.5,-1.5 1.5,-1.9 2.6,-2.6 0.7,-0.5 2.2,-1.4 3.3,-0.8 0.9,0.4 1.1,1.5 1.3,1.9 0.4,1.5 0,3 -0.5,4.2 -1.1,2.6 -4.7,8.1 -10,15.1 -0.2,-0.1 -0.4,-0.1 -0.6,-0.1 -3.7,-1.2 -7,-2.5 -13.7,-4.9 z m -91.2,96.2 c -1.7,4.2 -2.2,4.8 -3.7,8.2 -0.7,1.5 -1.7,3.9 -2.9,6.8 -0.8,1.7 -1.6,3 -2.3,3.9 -2.2,3.3 -3.8,4.6 -4.7,5.3 -1.9,1.3 -2.8,1.2 -3.2,1.1 -0.3,-0.1 -1,-0.3 -2,-1.6 -1.4,-1.9 -1.7,-4 -1.8,-4.6 -0.8,-6.1 -0.5,-9.2 -0.5,-9.2 1,-9.7 1.5,-14.5 3.6,-22 0.3,-1.1 1.4,-5.2 3.3,-10.4 3.5,-9.5 6.6,-14.9 8.1,-17.4 2.1,-3.4 4.5,-6.7 8.4,-9.1 3.5,-2.2 5.4,-1.9 6.4,-1.6 1.6,0.5 2.6,1.8 2.8,2.2 1.4,1.9 1.3,4.2 1.2,5.5 -0.5,8.9 -1.3,12.4 -1.3,12.4 -1.8,7.4 -3.7,12.8 -3.9,13.3 -2.7,7.4 -3.4,7.2 -7.5,17.2 z m 204.7,11.9 c -0.7,3 -1.8,7 -5,9.6 -0.8,0.7 -2.5,2 -4.7,1.9 -1.6,-0.1 -2.8,-0.9 -3.3,-1.4 -1.9,-1.4 -2.8,-3.5 -3.5,-5.7 -1.8,-5.7 -1.8,-9.8 -1.8,-9.8 0,-6.9 -0.3,-13.8 0,-20.6 0.3,-5.3 0.4,-13 -0.5,-22.6 0,0 -0.4,-3.2 0.6,-9.9 0.3,-1.8 0.7,-3.5 2.1,-4.6 1.7,-1.2 3.8,-0.7 4,-0.6 1.5,0.4 2.5,1.5 3.3,2.6 3.3,4.4 4.8,7.6 4.8,7.6 1.9,4.6 3.2,8.6 4,11.6 0.6,2.2 1.3,4.8 1.8,8.3 0.5,3 0.7,6 0.6,10.7 0,11.3 -1.4,18.6 -2.4,22.9 z"
           fill="#393939"
           id="path12"
           style="stroke-width:1.132" />
      </g>
    </g>
  </g>
</svg>
