<svg width="25" height="25" viewBox="0 0 25 25" fill="none" xmlns="http://www.w3.org/2000/svg">
<path d="M18.2334 5.96C17.9961 5.96 17.7641 6.03038 17.5667 6.16224C17.3694 6.29409 17.2156 6.48151 17.1248 6.70078C17.034 6.92005 17.0102 7.16133 17.0565 7.39411C17.1028 7.62689 17.2171 7.84071 17.3849 8.00853C17.5527 8.17635 17.7665 8.29064 17.9993 8.33694C18.2321 8.38324 18.4734 8.35948 18.6927 8.26866C18.9119 8.17783 19.0993 8.02402 19.2312 7.82668C19.3631 7.62935 19.4334 7.39734 19.4334 7.16C19.4334 6.84174 19.307 6.53652 19.082 6.31147C18.8569 6.08643 18.5517 5.96 18.2334 5.96ZM22.8334 8.38C22.814 7.5503 22.6586 6.7294 22.3734 5.95C22.1192 5.28313 21.7234 4.67928 21.2134 4.18C20.7183 3.66743 20.113 3.27418 19.4434 3.03C18.6661 2.73616 17.8443 2.57721 17.0134 2.56C15.9534 2.5 15.6134 2.5 12.8934 2.5C10.1734 2.5 9.83343 2.5 8.77343 2.56C7.94258 2.57721 7.12078 2.73616 6.34343 3.03C5.67511 3.27665 5.07037 3.66956 4.57343 4.18C4.06086 4.67518 3.66761 5.28044 3.42343 5.95C3.12959 6.72734 2.97064 7.54915 2.95343 8.38C2.89343 9.44 2.89343 9.78 2.89343 12.5C2.89343 15.22 2.89343 15.56 2.95343 16.62C2.97064 17.4508 3.12959 18.2727 3.42343 19.05C3.66761 19.7196 4.06086 20.3248 4.57343 20.82C5.07037 21.3304 5.67511 21.7234 6.34343 21.97C7.12078 22.2638 7.94258 22.4228 8.77343 22.44C9.83343 22.5 10.1734 22.5 12.8934 22.5C15.6134 22.5 15.9534 22.5 17.0134 22.44C17.8443 22.4228 18.6661 22.2638 19.4434 21.97C20.113 21.7258 20.7183 21.3326 21.2134 20.82C21.7257 20.3226 22.1218 19.7182 22.3734 19.05C22.6586 18.2706 22.814 17.4497 22.8334 16.62C22.8334 15.56 22.8934 15.22 22.8934 12.5C22.8934 9.78 22.8934 9.44 22.8334 8.38ZM21.0334 16.5C21.0262 17.1348 20.9112 17.7637 20.6934 18.36C20.5338 18.7952 20.2773 19.1884 19.9434 19.51C19.6191 19.8405 19.2267 20.0964 18.7934 20.26C18.1971 20.4778 17.5682 20.5927 16.9334 20.6C15.9334 20.65 15.5634 20.66 12.9334 20.66C10.3034 20.66 9.93343 20.66 8.93343 20.6C8.27432 20.6123 7.61803 20.5109 6.99343 20.3C6.57921 20.1281 6.20479 19.8728 5.89343 19.55C5.56152 19.2287 5.30828 18.8352 5.15343 18.4C4.90929 17.7952 4.77388 17.1519 4.75343 16.5C4.75343 15.5 4.69343 15.13 4.69343 12.5C4.69343 9.87 4.69343 9.5 4.75343 8.5C4.75791 7.85106 4.87638 7.20795 5.10343 6.6C5.27948 6.17791 5.5497 5.80166 5.89343 5.5C6.19725 5.15617 6.57272 4.8831 6.99343 4.7C7.60298 4.48004 8.24543 4.36508 8.89343 4.36C9.89343 4.36 10.2634 4.3 12.8934 4.3C15.5234 4.3 15.8934 4.3 16.8934 4.36C17.5282 4.36728 18.1571 4.48225 18.7534 4.7C19.2079 4.86865 19.6157 5.14285 19.9434 5.5C20.2711 5.80718 20.5272 6.18273 20.6934 6.6C20.9157 7.20893 21.0307 7.85178 21.0334 8.5C21.0834 9.5 21.0934 9.87 21.0934 12.5C21.0934 15.13 21.0834 15.5 21.0334 16.5ZM12.8934 7.37C11.8792 7.37198 10.8884 7.67453 10.0461 8.23942C9.20378 8.80431 8.54781 9.6062 8.16107 10.5438C7.77432 11.4813 7.67416 12.5125 7.87323 13.5069C8.0723 14.5014 8.56167 15.4145 9.27951 16.131C9.99735 16.8474 10.9114 17.335 11.9063 17.5321C12.9011 17.7293 13.9321 17.6271 14.8689 17.2385C15.8057 16.85 16.6063 16.1924 17.1696 15.349C17.7328 14.5056 18.0334 13.5142 18.0334 12.5C18.0348 11.8251 17.9026 11.1566 17.6447 10.533C17.3867 9.90931 17.008 9.34281 16.5303 8.86605C16.0526 8.38929 15.4854 8.01168 14.8612 7.75493C14.2371 7.49818 13.5683 7.36736 12.8934 7.37ZM12.8934 15.83C12.2348 15.83 11.591 15.6347 11.0434 15.2688C10.4958 14.9029 10.069 14.3828 9.81691 13.7743C9.56487 13.1659 9.49893 12.4963 9.62742 11.8503C9.75591 11.2044 10.0731 10.611 10.5388 10.1453C11.0045 9.67963 11.5978 9.36247 12.2438 9.23398C12.8897 9.1055 13.5593 9.17144 14.1678 9.42348C14.7762 9.67552 15.2963 10.1023 15.6622 10.65C16.0281 11.1976 16.2234 11.8414 16.2234 12.5C16.2234 12.9373 16.1373 13.3703 15.97 13.7743C15.8026 14.1784 15.5573 14.5454 15.2481 14.8547C14.9389 15.1639 14.5718 15.4092 14.1678 15.5765C13.7638 15.7439 13.3307 15.83 12.8934 15.83Z" fill="#E8DDFF"/>
</svg>
