<svg width="25" height="25" viewBox="0 0 25 25" fill="none" xmlns="http://www.w3.org/2000/svg">
<path d="M17.9416 8.84499C16.9381 8.84456 15.9502 9.09218 15.066 9.56571C14.9853 9.35373 14.8419 9.17125 14.6548 9.04251C14.4677 8.91378 14.2458 8.84489 14.0185 8.84499H9.53485C9.38763 8.8449 9.24184 8.87377 9.1058 8.92994C8.96977 8.9861 8.84617 9.06847 8.74207 9.17232C8.63797 9.27617 8.55541 9.39948 8.49911 9.53518C8.44281 9.67089 8.41387 9.81633 8.41395 9.9632V23.3818C8.41387 23.5287 8.4428 23.6741 8.4991 23.8098C8.5554 23.9455 8.63796 24.0688 8.74207 24.1727C8.84617 24.2765 8.96977 24.3589 9.1058 24.4151C9.24183 24.4712 9.38763 24.5001 9.53485 24.5H14.0185C14.1657 24.5001 14.3115 24.4712 14.4475 24.4151C14.5835 24.3589 14.7071 24.2765 14.8112 24.1727C14.9153 24.0688 14.9979 23.9455 15.0542 23.8098C15.1105 23.6741 15.1394 23.5287 15.1394 23.3818V17.2316C15.1394 16.935 15.2575 16.6506 15.4677 16.4409C15.6779 16.2312 15.963 16.1134 16.2603 16.1134C16.5575 16.1134 16.8426 16.2312 17.0529 16.4409C17.2631 16.6506 17.3812 16.935 17.3812 17.2316V23.3818C17.3811 23.5287 17.41 23.6741 17.4663 23.8098C17.5226 23.9455 17.6052 24.0688 17.7093 24.1727C17.8134 24.2765 17.937 24.3589 18.073 24.4151C18.209 24.4712 18.3548 24.5001 18.5021 24.5H22.9857C23.1329 24.5001 23.2787 24.4712 23.4147 24.4151C23.5507 24.3589 23.6744 24.2765 23.7785 24.1727C23.8826 24.0688 23.9651 23.9455 24.0214 23.8098C24.0777 23.6741 24.1067 23.5287 24.1066 23.3818V14.9952C24.1045 13.3647 23.4544 11.8015 22.2986 10.6486C21.1429 9.49563 19.576 8.84702 17.9416 8.84499ZM21.8648 22.2636H19.623V17.2316C19.623 16.3419 19.2687 15.4886 18.6381 14.8595C18.0074 14.2304 17.1521 13.877 16.2603 13.877C15.3684 13.877 14.5131 14.2304 13.8825 14.8595C13.2518 15.4886 12.8976 16.3419 12.8976 17.2316V22.2636H10.6558V11.0814H12.8976V11.8677C12.8977 12.0994 12.9699 12.3253 13.1043 12.5143C13.2387 12.7033 13.4285 12.846 13.6477 12.9227C13.8669 12.9994 14.1045 13.0063 14.3277 12.9425C14.551 12.8787 14.7489 12.7474 14.8942 12.5666C15.3972 11.9292 16.0872 11.4645 16.8678 11.2373C17.6484 11.01 18.4806 11.0317 19.2483 11.2991C20.0159 11.5666 20.6807 12.0666 21.1498 12.7292C21.6189 13.3918 21.8688 14.184 21.8648 14.9952V22.2636ZM6.17215 8.84499H1.68855C1.54133 8.8449 1.39553 8.87377 1.2595 8.92994C1.12347 8.9861 0.999866 9.06847 0.895764 9.17232C0.791662 9.27617 0.709101 9.39948 0.6528 9.53518C0.596499 9.67089 0.567564 9.81633 0.567648 9.9632V23.3818C0.567562 23.5287 0.596497 23.6741 0.652797 23.8098C0.709097 23.9455 0.791659 24.0688 0.895761 24.1727C0.999864 24.2765 1.12346 24.3589 1.2595 24.4151C1.39553 24.4712 1.54133 24.5001 1.68855 24.5H6.17215C6.31938 24.5001 6.46517 24.4712 6.6012 24.4151C6.73724 24.3589 6.86084 24.2765 6.96494 24.1727C7.06904 24.0688 7.1516 23.9455 7.2079 23.8098C7.2642 23.6741 7.29314 23.5287 7.29305 23.3818V9.9632C7.29314 9.81633 7.2642 9.67089 7.2079 9.53518C7.1516 9.39948 7.06904 9.27617 6.96494 9.17232C6.86083 9.06847 6.73723 8.9861 6.6012 8.92994C6.46517 8.87377 6.31937 8.8449 6.17215 8.84499ZM5.05125 22.2636H2.80945V11.0814H5.05125V22.2636ZM3.94677 0.506459C3.45622 0.477166 2.96482 0.547718 2.50246 0.713826C2.0401 0.879934 1.61644 1.13813 1.25725 1.4727C0.898047 1.80728 0.610819 2.21124 0.413029 2.66003C0.215238 3.10882 0.111018 3.59305 0.106707 4.08328C0.102396 4.57352 0.198083 5.0595 0.38795 5.51168C0.577817 5.96386 0.857896 6.3728 1.21115 6.71361C1.56441 7.05442 1.98347 7.31998 2.44283 7.49416C2.9022 7.66833 3.39228 7.74748 3.88327 7.72677H3.91502C4.40686 7.75592 4.8995 7.68471 5.36283 7.5175C5.82616 7.35029 6.25045 7.09059 6.60977 6.75427C6.9691 6.41795 7.25591 6.01207 7.45268 5.56144C7.64945 5.1108 7.75205 4.62487 7.75421 4.13335C7.75637 3.64182 7.65805 3.15501 7.46525 2.70267C7.27244 2.25033 6.98921 1.84196 6.63286 1.5025C6.27651 1.16305 5.85452 0.899651 5.39268 0.728394C4.93084 0.557136 4.43886 0.48162 3.94677 0.506459ZM3.91503 5.49034H3.88327C3.68943 5.51383 3.4928 5.49569 3.30656 5.43715C3.12032 5.37861 2.94878 5.28102 2.80344 5.15093C2.65811 5.02083 2.54234 4.86124 2.46389 4.68285C2.38545 4.50447 2.34614 4.31141 2.34861 4.11663C2.34861 3.28233 2.97584 2.74288 3.94677 2.74288C4.14259 2.71684 4.34173 2.73296 4.53078 2.79016C4.71983 2.84736 4.89439 2.94432 5.04272 3.07449C5.19104 3.20466 5.30968 3.36503 5.39065 3.5448C5.47161 3.72456 5.51302 3.91955 5.51209 4.11663C5.51209 4.95092 4.88486 5.49034 3.91503 5.49034Z" fill="#E8DDFF"/>
</svg>
