<svg width="25" height="25" viewBox="0 0 25 25" fill="none" xmlns="http://www.w3.org/2000/svg">
<g clip-path="url(#clip0_54695_24912)">
<path d="M11.2846 24.5C9.83556 24.5 8.32656 24.291 6.78556 23.874C1.07156 22.328 1.09156 15.209 1.10756 9.48903L1.10956 8.55103C1.10956 3.30103 4.45956 1.70903 4.60256 1.64403C7.82856 0.13403 16.3906 0.13403 19.6166 1.64603C19.7546 1.70903 23.1046 3.30103 23.1046 8.55103C23.1056 8.69703 23.1396 12.306 22.6436 14.883C22.2726 16.808 19.5726 18.666 16.6246 19.026L16.3816 19.057C15.1336 19.223 11.9306 19.645 8.12356 18.825L8.12456 18.835C8.39156 20.881 9.96056 21.095 12.1486 21.172C14.0806 21.245 15.8356 20.684 15.8536 20.678C15.9267 20.655 16.0042 20.6491 16.0801 20.6607C16.1559 20.6723 16.2281 20.7011 16.291 20.7449C16.354 20.7888 16.4061 20.8465 16.4433 20.9136C16.4804 20.9807 16.5018 21.0554 16.5056 21.132L16.5916 23.027C16.5958 23.1204 16.5738 23.2131 16.528 23.2946C16.4822 23.3761 16.4145 23.4431 16.3326 23.488C16.2706 23.522 14.7706 24.329 12.1356 24.477C11.8521 24.4923 11.5684 24.4999 11.2846 24.5ZM12.1076 1.50503C9.31056 1.50503 6.51356 1.85403 5.02256 2.55203C4.90156 2.60903 2.10956 3.97203 2.10956 8.55103L2.10856 9.49203C2.09256 15.15 2.07356 21.563 7.04656 22.909C8.78656 23.379 10.4816 23.573 12.0776 23.477C13.8516 23.377 15.0646 22.952 15.5776 22.735L15.5356 21.798C14.8046 21.974 13.5146 22.213 12.1156 22.17C10.2886 22.105 7.53056 22.007 7.13456 18.963C7.10086 18.7051 7.08449 18.4452 7.08556 18.185C7.08543 18.109 7.10264 18.0339 7.13588 17.9656C7.16913 17.8972 7.21753 17.8373 7.2774 17.7904C7.33728 17.7436 7.40706 17.711 7.48142 17.6951C7.55579 17.6793 7.63279 17.6806 7.70656 17.699C11.6176 18.675 14.9846 18.232 16.2526 18.064L16.5046 18.032C19.2296 17.7 21.4106 16.006 21.6626 14.692C22.1396 12.215 22.1066 8.59103 22.1056 8.55503C22.1056 3.97003 19.3136 2.60703 19.1946 2.55103C17.7046 1.85403 14.9066 1.50503 12.1076 1.50503Z" fill="#20005E"/>
<path d="M18.8346 15.479H16.4906C16.358 15.479 16.2308 15.4263 16.137 15.3326C16.0433 15.2388 15.9906 15.1116 15.9906 14.979V9.11601C15.9906 7.60601 14.7456 7.41201 14.1816 8.08501C13.9156 8.40101 13.7746 8.88101 13.7746 9.47001V12.679C13.7746 12.8116 13.7219 12.9388 13.6281 13.0326C13.5344 13.1263 13.4072 13.179 13.2746 13.179H10.9476C10.815 13.179 10.6878 13.1263 10.594 13.0326C10.5003 12.9388 10.4476 12.8116 10.4476 12.679V9.47001C10.4476 8.88101 10.3066 8.40201 10.0406 8.08501C9.47759 7.41301 8.2326 7.60701 8.2326 9.11601V14.978C8.2326 15.1106 8.17992 15.2378 8.08615 15.3316C7.99238 15.4253 7.8652 15.478 7.7326 15.478H5.38559C5.25299 15.478 5.12581 15.4253 5.03204 15.3316C4.93827 15.2378 4.88559 15.1106 4.88559 14.978C4.88559 13.896 4.8776 12.962 4.8706 12.149C4.8376 8.16501 4.8286 6.96301 5.9296 5.67101L5.9336 5.66501C6.7036 4.78801 7.94359 4.30301 9.16259 4.39501C10.3236 4.48401 11.3386 5.08301 11.9476 6.04001L12.1086 6.31601L12.2596 6.05601C12.5616 5.57941 12.9717 5.18071 13.4566 4.89229C13.9415 4.60387 14.4876 4.43384 15.0506 4.39601C16.2786 4.30501 17.5136 4.78801 18.2836 5.66501C19.3926 6.97101 19.3826 8.16701 19.3476 12.129C19.3383 13.079 19.3333 14.029 19.3326 14.979C19.333 15.0446 19.3204 15.1096 19.2955 15.1704C19.2707 15.2311 19.234 15.2863 19.1877 15.3327C19.1414 15.3792 19.0864 15.4161 19.0258 15.4412C18.9652 15.4663 18.9002 15.4791 18.8346 15.479ZM16.9906 14.479H18.3346C18.3366 13.593 18.3436 12.813 18.3496 12.121C18.3816 8.35001 18.3906 7.33601 17.5276 6.31901C16.9666 5.68001 16.0506 5.32501 15.1286 5.39401C14.2746 5.45901 13.5586 5.87901 13.1146 6.57801L12.5416 7.56201C12.4972 7.63705 12.434 7.69922 12.3582 7.74241C12.2825 7.7856 12.1968 7.80831 12.1096 7.80831C12.0224 7.80831 11.9367 7.7856 11.861 7.74241C11.7852 7.69922 11.722 7.63705 11.6776 7.56201L11.0946 6.56101C10.6606 5.87901 9.94359 5.45801 9.08659 5.39301C8.17159 5.32601 7.25359 5.68001 6.68859 6.32201C5.83159 7.33001 5.8396 8.35201 5.8716 12.142C5.8776 12.829 5.88359 13.603 5.88559 14.479H7.2326V9.11601C7.2326 7.53601 8.2646 6.70901 9.2846 6.70901C9.8616 6.70901 10.4166 6.97601 10.8076 7.44101C11.2266 7.94101 11.4486 8.64201 11.4486 9.46901V12.178H12.7756V9.47001C12.7756 8.64301 12.9976 7.94201 13.4166 7.44201C13.6014 7.21598 13.8336 7.03328 14.0968 6.9068C14.3599 6.78032 14.6476 6.71314 14.9396 6.71001C15.9596 6.71001 16.9916 7.53701 16.9916 9.11701L16.9906 14.479Z" fill="#20005E"/>
</g>
<defs>
<clipPath id="clip0_54695_24912">
<rect width="24" height="24" fill="#20005E" transform="translate(0.106567 0.5)"/>
</clipPath>
</defs>
</svg>
