<svg width="30" height="25" viewBox="0 0 30 25" fill="none" xmlns="http://www.w3.org/2000/svg">
<path d="M29.098 2.17765C29.0982 1.9512 29.0383 1.72876 28.9245 1.53298C28.8107 1.3372 28.6471 1.17507 28.4503 1.06311C28.2534 0.951141 28.0304 0.89334 27.804 0.89559C27.5776 0.897839 27.3558 0.960059 27.1612 1.07591C26.4108 1.52255 25.603 1.86459 24.76 2.09255C23.5562 1.05954 22.0208 0.494266 20.4345 0.500044C18.6942 0.502047 17.0229 1.18027 15.7734 2.3915C14.5238 3.60273 13.7939 5.25216 13.7377 6.9915C10.307 6.44441 7.19769 4.65378 5.00265 1.96105C4.87039 1.80059 4.70149 1.67428 4.51018 1.59279C4.31887 1.51129 4.11077 1.477 3.90342 1.4928C3.6962 1.50986 3.49625 1.57714 3.32087 1.68883C3.14548 1.80052 2.99995 1.95324 2.89684 2.1338C2.36804 3.05661 2.06434 4.09113 2.01039 5.15334C1.95644 6.21555 2.15377 7.27551 2.58635 8.24715L2.58385 8.24965C2.38943 8.3694 2.22898 8.53702 2.11784 8.73649C2.00671 8.93597 1.94861 9.16061 1.9491 9.38895C1.94674 9.57732 1.95804 9.7656 1.9829 9.95233C2.11384 11.5654 2.82875 13.0754 3.99356 14.199C3.91454 14.3495 3.86632 14.5143 3.8517 14.6837C3.83708 14.8531 3.85636 15.0237 3.90842 15.1856C4.41625 16.7677 5.4962 18.1035 6.93694 18.9314C5.47319 19.4975 3.89269 19.6948 2.3347 19.5061C2.04634 19.4699 1.75424 19.5328 1.50633 19.6845C1.25841 19.8361 1.06939 20.0675 0.970273 20.3407C0.871159 20.6139 0.867834 20.9127 0.960845 21.188C1.05386 21.4633 1.23768 21.6989 1.48216 21.856C4.16169 23.5818 7.28158 24.4994 10.4688 24.499C14.0831 24.5396 17.6096 23.3847 20.4996 21.2137C23.3896 19.0428 25.4811 15.9776 26.4488 12.495C26.9015 10.978 27.1326 9.40343 27.135 7.82025C27.135 7.73637 27.135 7.64999 27.1337 7.56361C27.803 6.84174 28.3216 5.99353 28.6589 5.06868C28.9962 4.14382 29.1455 3.16095 29.098 2.17765ZM24.8588 6.29536C24.6471 6.5458 24.5399 6.86817 24.5596 7.19553C24.5721 7.40706 24.5709 7.61987 24.5709 7.82025C24.5683 9.15809 24.3722 10.4885 23.9887 11.7702C23.1984 14.7335 21.4364 17.3457 18.9851 19.1887C16.5338 21.0317 13.535 21.9987 10.4688 21.9349C9.36738 21.9353 8.26977 21.8058 7.19865 21.5493C8.56452 21.1091 9.84164 20.4305 10.9708 19.5449C11.1788 19.3812 11.331 19.1571 11.4066 18.9034C11.4821 18.6497 11.4773 18.3788 11.3928 18.128C11.3083 17.8771 11.1483 17.6586 10.9346 17.5023C10.721 17.346 10.4642 17.2596 10.1996 17.2551C9.13399 17.2385 8.11646 16.809 7.36135 16.057C7.55291 16.0206 7.74321 15.9756 7.93226 15.9217C8.20919 15.8429 8.45153 15.6732 8.62026 15.4399C8.789 15.2066 8.87431 14.9233 8.86245 14.6356C8.8506 14.3479 8.74227 14.0726 8.55491 13.8539C8.36755 13.6353 8.11207 13.4861 7.82959 13.4303C7.21107 13.3082 6.62905 13.045 6.12876 12.6613C5.62848 12.2777 5.22342 11.7838 4.94506 11.2181C5.17676 11.2497 5.40993 11.2694 5.64366 11.2769C5.92132 11.2811 6.19312 11.1969 6.41976 11.0364C6.64639 10.876 6.81612 10.6476 6.90439 10.3843C6.98898 10.1186 6.98462 9.83259 6.89199 9.5696C6.79936 9.30662 6.6235 9.08101 6.39108 8.92699C5.82719 8.55132 5.36527 8.04166 5.04671 7.44365C4.72814 6.84563 4.56288 6.17794 4.56571 5.50037C4.56571 5.41525 4.56821 5.33011 4.57323 5.24623C7.44655 7.92596 11.1734 9.50565 15.0973 9.70698C15.2953 9.71478 15.4926 9.67748 15.6741 9.59788C15.8557 9.51828 16.0167 9.39848 16.1452 9.24751C16.2723 9.09508 16.3624 8.91522 16.4082 8.72208C16.454 8.52895 16.4544 8.32782 16.4093 8.13451C16.336 7.82858 16.2986 7.51514 16.2979 7.20054C16.299 6.10382 16.7352 5.05236 17.5107 4.27686C18.2862 3.50137 19.3377 3.06519 20.4344 3.06403C20.9987 3.06252 21.5571 3.178 22.0745 3.40319C22.5919 3.62837 23.0569 3.95836 23.4404 4.37234C23.5882 4.53142 23.7743 4.65002 23.981 4.71686C24.1876 4.78371 24.4079 4.79658 24.6209 4.75424C25.1476 4.65175 25.6667 4.51372 26.1746 4.3411C25.8281 5.05002 25.3854 5.70766 24.8588 6.29536Z" fill="#E8DDFF"/>
</svg>
