<svg width="25" height="25" viewBox="0 0 25 25" fill="none" xmlns="http://www.w3.org/2000/svg">
<path d="M23.1066 10.21C23.156 8.77864 22.843 7.358 22.1966 6.07998C21.758 5.55558 21.1493 5.20169 20.4766 5.07998C17.6941 4.82751 14.9001 4.72403 12.1066 4.76998C9.32324 4.72194 6.5393 4.82208 3.76659 5.06998C3.21841 5.1697 2.71111 5.42683 2.30659 5.80998C1.40659 6.63998 1.30659 8.05998 1.20659 9.25998C1.06151 11.4175 1.06151 13.5824 1.20659 15.74C1.23552 16.4154 1.33609 17.0858 1.50659 17.74C1.62717 18.245 1.87112 18.7123 2.21659 19.1C2.62386 19.5034 3.14298 19.7752 3.70659 19.88C5.86251 20.1461 8.03481 20.2564 10.2066 20.21C13.7066 20.26 16.7766 20.21 20.4066 19.93C20.984 19.8316 21.5178 19.5595 21.9366 19.15C22.2166 18.8699 22.4257 18.5271 22.5466 18.15C22.9042 17.0526 23.0799 15.9041 23.0666 14.75C23.1066 14.19 23.1066 10.81 23.1066 10.21ZM9.84659 15.35V9.15998L15.7666 12.27C14.1066 13.19 11.9166 14.23 9.84659 15.35Z" fill="#E8DDFF"/>
</svg>
